<?xml version="1.0" encoding="utf-8" standalone="no"?>
<!DOCTYPE svg PUBLIC "-//W3C//DTD SVG 1.1//EN"
  "http://www.w3.org/Graphics/SVG/1.1/DTD/svg11.dtd">
<svg height="130.301375pt" version="1.1" viewBox="0 0 230.254688 130.301375" width="230.254688pt" xmlns="http://www.w3.org/2000/svg" xmlns:xlink="http://www.w3.org/1999/xlink">
 <metadata>
  <rdf:RDF xmlns:cc="http://creativecommons.org/ns#" xmlns:dc="http://purl.org/dc/elements/1.1/" xmlns:rdf="http://www.w3.org/1999/02/22-rdf-syntax-ns#">
   <cc:Work>
    <dc:type rdf:resource="http://purl.org/dc/dcmitype/StillImage"/>
    <dc:date>2022-02-17T16:22:05.484083</dc:date>
    <dc:format>image/svg+xml</dc:format>
    <dc:creator>
     <cc:Agent>
      <dc:title>Matplotlib v3.4.2, https://matplotlib.org/</dc:title>
     </cc:Agent>
    </dc:creator>
   </cc:Work>
  </rdf:RDF>
 </metadata>
 <defs>
  <style type="text/css">*{stroke-linecap:butt;stroke-linejoin:round;}</style>
 </defs>
 <g id="figure_1">
  <g id="patch_1">
   <path d="M -0 130.301375 
L 230.254688 130.301375 
L 230.254688 0 
L -0 0 
z
" style="fill:none;"/>
  </g>
  <g id="axes_1">
   <g id="patch_2">
    <path d="M 117.914687 101.334188 
L 196.034688 101.334188 
L 196.034688 25.230188 
L 117.914687 25.230188 
z
" style="fill:#ffffff;"/>
   </g>
   <g id="patch_3">
    <path clip-path="url(#p3b14ec017c)" d="M 117.914687 26.752268 
L 192.314688 26.752268 
L 192.314688 38.928908 
L 117.914687 38.928908 
z
"/>
   </g>
   <g id="patch_4">
    <path clip-path="url(#p3b14ec017c)" d="M 117.914687 41.973068 
L 187.513951 41.973068 
L 187.513951 54.149708 
L 117.914687 54.149708 
z
"/>
   </g>
   <g id="patch_5">
    <path clip-path="url(#p3b14ec017c)" d="M 117.914687 57.193868 
L 181.353367 57.193868 
L 181.353367 69.370508 
L 117.914687 69.370508 
z
"/>
   </g>
   <g id="patch_6">
    <path clip-path="url(#p3b14ec017c)" d="M 117.914687 72.414668 
L 179.370131 72.414668 
L 179.370131 84.591308 
L 117.914687 84.591308 
z
"/>
   </g>
   <g id="patch_7">
    <path clip-path="url(#p3b14ec017c)" d="M 117.914687 87.635468 
L 172.051822 87.635468 
L 172.051822 99.812108 
L 117.914687 99.812108 
z
"/>
   </g>
   <g id="matplotlib.axis_1">
    <g id="xtick_1">
     <g id="line2d_1">
      <defs>
       <path d="M 0 0 
L 0 3.5 
" id="m37824639e7" style="stroke:#000000;stroke-width:0.8;"/>
      </defs>
      <g>
       <use style="stroke:#000000;stroke-width:0.8;" x="117.914687" xlink:href="#m37824639e7" y="101.334188"/>
      </g>
     </g>
     <g id="text_1">
      <!-- 0 -->
      <g transform="translate(116.246406 112.628875)scale(0.06 -0.06)">
       <defs>
        <path d="M 266 2259 
Q 266 3072 433 3567 
Q 600 4063 929 4331 
Q 1259 4600 1759 4600 
Q 2128 4600 2406 4451 
Q 2684 4303 2865 4023 
Q 3047 3744 3150 3342 
Q 3253 2941 3253 2259 
Q 3253 1453 3087 958 
Q 2922 463 2592 192 
Q 2263 -78 1759 -78 
Q 1097 -78 719 397 
Q 266 969 266 2259 
z
M 844 2259 
Q 844 1131 1108 757 
Q 1372 384 1759 384 
Q 2147 384 2411 759 
Q 2675 1134 2675 2259 
Q 2675 3391 2411 3762 
Q 2147 4134 1753 4134 
Q 1366 4134 1134 3806 
Q 844 3388 844 2259 
z
" id="ArialMT-30" transform="scale(0.015625)"/>
       </defs>
       <use xlink:href="#ArialMT-30"/>
      </g>
     </g>
    </g>
    <g id="xtick_2">
     <g id="line2d_2">
      <g>
       <use style="stroke:#000000;stroke-width:0.8;" x="138.132043" xlink:href="#m37824639e7" y="101.334188"/>
      </g>
     </g>
     <g id="text_2">
      <!-- 1 -->
      <g transform="translate(136.463762 112.628875)scale(0.06 -0.06)">
       <defs>
        <path d="M 2384 0 
L 1822 0 
L 1822 3584 
Q 1619 3391 1289 3197 
Q 959 3003 697 2906 
L 697 3450 
Q 1169 3672 1522 3987 
Q 1875 4303 2022 4600 
L 2384 4600 
L 2384 0 
z
" id="ArialMT-31" transform="scale(0.015625)"/>
       </defs>
       <use xlink:href="#ArialMT-31"/>
      </g>
     </g>
    </g>
    <g id="xtick_3">
     <g id="line2d_3">
      <g>
       <use style="stroke:#000000;stroke-width:0.8;" x="158.349399" xlink:href="#m37824639e7" y="101.334188"/>
      </g>
     </g>
     <g id="text_3">
      <!-- 2 -->
      <g transform="translate(156.681118 112.628875)scale(0.06 -0.06)">
       <defs>
        <path d="M 3222 541 
L 3222 0 
L 194 0 
Q 188 203 259 391 
Q 375 700 629 1000 
Q 884 1300 1366 1694 
Q 2113 2306 2375 2664 
Q 2638 3022 2638 3341 
Q 2638 3675 2398 3904 
Q 2159 4134 1775 4134 
Q 1369 4134 1125 3890 
Q 881 3647 878 3216 
L 300 3275 
Q 359 3922 746 4261 
Q 1134 4600 1788 4600 
Q 2447 4600 2831 4234 
Q 3216 3869 3216 3328 
Q 3216 3053 3103 2787 
Q 2991 2522 2730 2228 
Q 2469 1934 1863 1422 
Q 1356 997 1212 845 
Q 1069 694 975 541 
L 3222 541 
z
" id="ArialMT-32" transform="scale(0.015625)"/>
       </defs>
       <use xlink:href="#ArialMT-32"/>
      </g>
     </g>
    </g>
    <g id="xtick_4">
     <g id="line2d_4">
      <g>
       <use style="stroke:#000000;stroke-width:0.8;" x="178.566755" xlink:href="#m37824639e7" y="101.334188"/>
      </g>
     </g>
     <g id="text_4">
      <!-- 3 -->
      <g transform="translate(176.898474 112.628875)scale(0.06 -0.06)">
       <defs>
        <path d="M 269 1209 
L 831 1284 
Q 928 806 1161 595 
Q 1394 384 1728 384 
Q 2125 384 2398 659 
Q 2672 934 2672 1341 
Q 2672 1728 2419 1979 
Q 2166 2231 1775 2231 
Q 1616 2231 1378 2169 
L 1441 2663 
Q 1497 2656 1531 2656 
Q 1891 2656 2178 2843 
Q 2466 3031 2466 3422 
Q 2466 3731 2256 3934 
Q 2047 4138 1716 4138 
Q 1388 4138 1169 3931 
Q 950 3725 888 3313 
L 325 3413 
Q 428 3978 793 4289 
Q 1159 4600 1703 4600 
Q 2078 4600 2393 4439 
Q 2709 4278 2876 4000 
Q 3044 3722 3044 3409 
Q 3044 3113 2884 2869 
Q 2725 2625 2413 2481 
Q 2819 2388 3044 2092 
Q 3269 1797 3269 1353 
Q 3269 753 2831 336 
Q 2394 -81 1725 -81 
Q 1122 -81 723 278 
Q 325 638 269 1209 
z
" id="ArialMT-33" transform="scale(0.015625)"/>
       </defs>
       <use xlink:href="#ArialMT-33"/>
      </g>
     </g>
    </g>
    <g id="text_5">
     <!-- -$log_{10}$(adjusted p-value) -->
     <g transform="translate(120.154688 120.931375)scale(0.07 -0.07)">
      <defs>
       <path d="M 203 1375 
L 203 1941 
L 1931 1941 
L 1931 1375 
L 203 1375 
z
" id="ArialMT-2d" transform="scale(0.015625)"/>
       <path d="M 409 0 
L 409 4581 
L 972 4581 
L 972 0 
L 409 0 
z
" id="ArialMT-6c" transform="scale(0.015625)"/>
       <path d="M 213 1659 
Q 213 2581 725 3025 
Q 1153 3394 1769 3394 
Q 2453 3394 2887 2945 
Q 3322 2497 3322 1706 
Q 3322 1066 3130 698 
Q 2938 331 2570 128 
Q 2203 -75 1769 -75 
Q 1072 -75 642 372 
Q 213 819 213 1659 
z
M 791 1659 
Q 791 1022 1069 705 
Q 1347 388 1769 388 
Q 2188 388 2466 706 
Q 2744 1025 2744 1678 
Q 2744 2294 2464 2611 
Q 2184 2928 1769 2928 
Q 1347 2928 1069 2612 
Q 791 2297 791 1659 
z
" id="ArialMT-6f" transform="scale(0.015625)"/>
       <path d="M 319 -275 
L 866 -356 
Q 900 -609 1056 -725 
Q 1266 -881 1628 -881 
Q 2019 -881 2231 -725 
Q 2444 -569 2519 -288 
Q 2563 -116 2559 434 
Q 2191 0 1641 0 
Q 956 0 581 494 
Q 206 988 206 1678 
Q 206 2153 378 2554 
Q 550 2956 876 3175 
Q 1203 3394 1644 3394 
Q 2231 3394 2613 2919 
L 2613 3319 
L 3131 3319 
L 3131 450 
Q 3131 -325 2973 -648 
Q 2816 -972 2473 -1159 
Q 2131 -1347 1631 -1347 
Q 1038 -1347 672 -1080 
Q 306 -813 319 -275 
z
M 784 1719 
Q 784 1066 1043 766 
Q 1303 466 1694 466 
Q 2081 466 2343 764 
Q 2606 1063 2606 1700 
Q 2606 2309 2336 2618 
Q 2066 2928 1684 2928 
Q 1309 2928 1046 2623 
Q 784 2319 784 1719 
z
" id="ArialMT-67" transform="scale(0.015625)"/>
       <path d="M 1497 -1347 
Q 1031 -759 709 28 
Q 388 816 388 1659 
Q 388 2403 628 3084 
Q 909 3875 1497 4659 
L 1900 4659 
Q 1522 4009 1400 3731 
Q 1209 3300 1100 2831 
Q 966 2247 966 1656 
Q 966 153 1900 -1347 
L 1497 -1347 
z
" id="ArialMT-28" transform="scale(0.015625)"/>
       <path d="M 2588 409 
Q 2275 144 1986 34 
Q 1697 -75 1366 -75 
Q 819 -75 525 192 
Q 231 459 231 875 
Q 231 1119 342 1320 
Q 453 1522 633 1644 
Q 813 1766 1038 1828 
Q 1203 1872 1538 1913 
Q 2219 1994 2541 2106 
Q 2544 2222 2544 2253 
Q 2544 2597 2384 2738 
Q 2169 2928 1744 2928 
Q 1347 2928 1158 2789 
Q 969 2650 878 2297 
L 328 2372 
Q 403 2725 575 2942 
Q 747 3159 1072 3276 
Q 1397 3394 1825 3394 
Q 2250 3394 2515 3294 
Q 2781 3194 2906 3042 
Q 3031 2891 3081 2659 
Q 3109 2516 3109 2141 
L 3109 1391 
Q 3109 606 3145 398 
Q 3181 191 3288 0 
L 2700 0 
Q 2613 175 2588 409 
z
M 2541 1666 
Q 2234 1541 1622 1453 
Q 1275 1403 1131 1340 
Q 988 1278 909 1158 
Q 831 1038 831 891 
Q 831 666 1001 516 
Q 1172 366 1500 366 
Q 1825 366 2078 508 
Q 2331 650 2450 897 
Q 2541 1088 2541 1459 
L 2541 1666 
z
" id="ArialMT-61" transform="scale(0.015625)"/>
       <path d="M 2575 0 
L 2575 419 
Q 2259 -75 1647 -75 
Q 1250 -75 917 144 
Q 584 363 401 755 
Q 219 1147 219 1656 
Q 219 2153 384 2558 
Q 550 2963 881 3178 
Q 1213 3394 1622 3394 
Q 1922 3394 2156 3267 
Q 2391 3141 2538 2938 
L 2538 4581 
L 3097 4581 
L 3097 0 
L 2575 0 
z
M 797 1656 
Q 797 1019 1065 703 
Q 1334 388 1700 388 
Q 2069 388 2326 689 
Q 2584 991 2584 1609 
Q 2584 2291 2321 2609 
Q 2059 2928 1675 2928 
Q 1300 2928 1048 2622 
Q 797 2316 797 1656 
z
" id="ArialMT-64" transform="scale(0.015625)"/>
       <path d="M 419 3928 
L 419 4581 
L 981 4581 
L 981 3928 
L 419 3928 
z
M -294 -1288 
L -188 -809 
Q -19 -853 78 -853 
Q 250 -853 334 -739 
Q 419 -625 419 -169 
L 419 3319 
L 981 3319 
L 981 -181 
Q 981 -794 822 -1034 
Q 619 -1347 147 -1347 
Q -81 -1347 -294 -1288 
z
" id="ArialMT-6a" transform="scale(0.015625)"/>
       <path d="M 2597 0 
L 2597 488 
Q 2209 -75 1544 -75 
Q 1250 -75 995 37 
Q 741 150 617 320 
Q 494 491 444 738 
Q 409 903 409 1263 
L 409 3319 
L 972 3319 
L 972 1478 
Q 972 1038 1006 884 
Q 1059 663 1231 536 
Q 1403 409 1656 409 
Q 1909 409 2131 539 
Q 2353 669 2445 892 
Q 2538 1116 2538 1541 
L 2538 3319 
L 3100 3319 
L 3100 0 
L 2597 0 
z
" id="ArialMT-75" transform="scale(0.015625)"/>
       <path d="M 197 991 
L 753 1078 
Q 800 744 1014 566 
Q 1228 388 1613 388 
Q 2000 388 2187 545 
Q 2375 703 2375 916 
Q 2375 1106 2209 1216 
Q 2094 1291 1634 1406 
Q 1016 1563 777 1677 
Q 538 1791 414 1992 
Q 291 2194 291 2438 
Q 291 2659 392 2848 
Q 494 3038 669 3163 
Q 800 3259 1026 3326 
Q 1253 3394 1513 3394 
Q 1903 3394 2198 3281 
Q 2494 3169 2634 2976 
Q 2775 2784 2828 2463 
L 2278 2388 
Q 2241 2644 2061 2787 
Q 1881 2931 1553 2931 
Q 1166 2931 1000 2803 
Q 834 2675 834 2503 
Q 834 2394 903 2306 
Q 972 2216 1119 2156 
Q 1203 2125 1616 2013 
Q 2213 1853 2448 1751 
Q 2684 1650 2818 1456 
Q 2953 1263 2953 975 
Q 2953 694 2789 445 
Q 2625 197 2315 61 
Q 2006 -75 1616 -75 
Q 969 -75 630 194 
Q 291 463 197 991 
z
" id="ArialMT-73" transform="scale(0.015625)"/>
       <path d="M 1650 503 
L 1731 6 
Q 1494 -44 1306 -44 
Q 1000 -44 831 53 
Q 663 150 594 308 
Q 525 466 525 972 
L 525 2881 
L 113 2881 
L 113 3319 
L 525 3319 
L 525 4141 
L 1084 4478 
L 1084 3319 
L 1650 3319 
L 1650 2881 
L 1084 2881 
L 1084 941 
Q 1084 700 1114 631 
Q 1144 563 1211 522 
Q 1278 481 1403 481 
Q 1497 481 1650 503 
z
" id="ArialMT-74" transform="scale(0.015625)"/>
       <path d="M 2694 1069 
L 3275 997 
Q 3138 488 2766 206 
Q 2394 -75 1816 -75 
Q 1088 -75 661 373 
Q 234 822 234 1631 
Q 234 2469 665 2931 
Q 1097 3394 1784 3394 
Q 2450 3394 2872 2941 
Q 3294 2488 3294 1666 
Q 3294 1616 3291 1516 
L 816 1516 
Q 847 969 1125 678 
Q 1403 388 1819 388 
Q 2128 388 2347 550 
Q 2566 713 2694 1069 
z
M 847 1978 
L 2700 1978 
Q 2663 2397 2488 2606 
Q 2219 2931 1791 2931 
Q 1403 2931 1139 2672 
Q 875 2413 847 1978 
z
" id="ArialMT-65" transform="scale(0.015625)"/>
       <path id="ArialMT-20" transform="scale(0.015625)"/>
       <path d="M 422 -1272 
L 422 3319 
L 934 3319 
L 934 2888 
Q 1116 3141 1344 3267 
Q 1572 3394 1897 3394 
Q 2322 3394 2647 3175 
Q 2972 2956 3137 2557 
Q 3303 2159 3303 1684 
Q 3303 1175 3120 767 
Q 2938 359 2589 142 
Q 2241 -75 1856 -75 
Q 1575 -75 1351 44 
Q 1128 163 984 344 
L 984 -1272 
L 422 -1272 
z
M 931 1641 
Q 931 1000 1190 694 
Q 1450 388 1819 388 
Q 2194 388 2461 705 
Q 2728 1022 2728 1688 
Q 2728 2322 2467 2637 
Q 2206 2953 1844 2953 
Q 1484 2953 1207 2617 
Q 931 2281 931 1641 
z
" id="ArialMT-70" transform="scale(0.015625)"/>
       <path d="M 1344 0 
L 81 3319 
L 675 3319 
L 1388 1331 
Q 1503 1009 1600 663 
Q 1675 925 1809 1294 
L 2547 3319 
L 3125 3319 
L 1869 0 
L 1344 0 
z
" id="ArialMT-76" transform="scale(0.015625)"/>
       <path d="M 791 -1347 
L 388 -1347 
Q 1322 153 1322 1656 
Q 1322 2244 1188 2822 
Q 1081 3291 891 3722 
Q 769 4003 388 4659 
L 791 4659 
Q 1378 3875 1659 3084 
Q 1900 2403 1900 1659 
Q 1900 816 1576 28 
Q 1253 -759 791 -1347 
z
" id="ArialMT-29" transform="scale(0.015625)"/>
      </defs>
      <use transform="translate(0 0.203125)" xlink:href="#ArialMT-2d"/>
      <use transform="translate(33.300781 0.203125)" xlink:href="#ArialMT-6c"/>
      <use transform="translate(55.517578 0.203125)" xlink:href="#ArialMT-6f"/>
      <use transform="translate(111.132812 0.203125)" xlink:href="#ArialMT-67"/>
      <use transform="translate(168.490391 -29.665625)scale(0.7)" xlink:href="#ArialMT-31"/>
      <use transform="translate(207.421055 -29.665625)scale(0.7)" xlink:href="#ArialMT-30"/>
      <use transform="translate(251.329844 0.203125)" xlink:href="#ArialMT-28"/>
      <use transform="translate(284.630625 0.203125)" xlink:href="#ArialMT-61"/>
      <use transform="translate(340.245859 0.203125)" xlink:href="#ArialMT-64"/>
      <use transform="translate(395.861094 0.203125)" xlink:href="#ArialMT-6a"/>
      <use transform="translate(418.077891 0.203125)" xlink:href="#ArialMT-75"/>
      <use transform="translate(473.693125 0.203125)" xlink:href="#ArialMT-73"/>
      <use transform="translate(523.693125 0.203125)" xlink:href="#ArialMT-74"/>
      <use transform="translate(551.476328 0.203125)" xlink:href="#ArialMT-65"/>
      <use transform="translate(607.091563 0.203125)" xlink:href="#ArialMT-64"/>
      <use transform="translate(662.706797 0.203125)" xlink:href="#ArialMT-20"/>
      <use transform="translate(690.49 0.203125)" xlink:href="#ArialMT-70"/>
      <use transform="translate(746.105234 0.203125)" xlink:href="#ArialMT-2d"/>
      <use transform="translate(779.406016 0.203125)" xlink:href="#ArialMT-76"/>
      <use transform="translate(829.406016 0.203125)" xlink:href="#ArialMT-61"/>
      <use transform="translate(885.02125 0.203125)" xlink:href="#ArialMT-6c"/>
      <use transform="translate(907.238047 0.203125)" xlink:href="#ArialMT-75"/>
      <use transform="translate(962.853281 0.203125)" xlink:href="#ArialMT-65"/>
      <use transform="translate(1018.468516 0.203125)" xlink:href="#ArialMT-29"/>
     </g>
    </g>
   </g>
   <g id="matplotlib.axis_2">
    <g id="ytick_1">
     <g id="line2d_5">
      <defs>
       <path d="M 0 0 
L -3.5 0 
" id="mef5282b6d4" style="stroke:#000000;stroke-width:0.8;"/>
      </defs>
      <g>
       <use style="stroke:#000000;stroke-width:0.8;" x="117.914687" xlink:href="#mef5282b6d4" y="32.840588"/>
      </g>
     </g>
     <g id="text_6">
      <!-- sensory perception of light stimulus -->
      <g transform="translate(17.20875 35.024494)scale(0.06 -0.06)">
       <defs>
        <path d="M 422 0 
L 422 3319 
L 928 3319 
L 928 2847 
Q 1294 3394 1984 3394 
Q 2284 3394 2536 3286 
Q 2788 3178 2913 3003 
Q 3038 2828 3088 2588 
Q 3119 2431 3119 2041 
L 3119 0 
L 2556 0 
L 2556 2019 
Q 2556 2363 2490 2533 
Q 2425 2703 2258 2804 
Q 2091 2906 1866 2906 
Q 1506 2906 1245 2678 
Q 984 2450 984 1813 
L 984 0 
L 422 0 
z
" id="ArialMT-6e" transform="scale(0.015625)"/>
        <path d="M 416 0 
L 416 3319 
L 922 3319 
L 922 2816 
Q 1116 3169 1280 3281 
Q 1444 3394 1641 3394 
Q 1925 3394 2219 3213 
L 2025 2691 
Q 1819 2813 1613 2813 
Q 1428 2813 1281 2702 
Q 1134 2591 1072 2394 
Q 978 2094 978 1738 
L 978 0 
L 416 0 
z
" id="ArialMT-72" transform="scale(0.015625)"/>
        <path d="M 397 -1278 
L 334 -750 
Q 519 -800 656 -800 
Q 844 -800 956 -737 
Q 1069 -675 1141 -563 
Q 1194 -478 1313 -144 
Q 1328 -97 1363 -6 
L 103 3319 
L 709 3319 
L 1400 1397 
Q 1534 1031 1641 628 
Q 1738 1016 1872 1384 
L 2581 3319 
L 3144 3319 
L 1881 -56 
Q 1678 -603 1566 -809 
Q 1416 -1088 1222 -1217 
Q 1028 -1347 759 -1347 
Q 597 -1347 397 -1278 
z
" id="ArialMT-79" transform="scale(0.015625)"/>
        <path d="M 2588 1216 
L 3141 1144 
Q 3050 572 2676 248 
Q 2303 -75 1759 -75 
Q 1078 -75 664 370 
Q 250 816 250 1647 
Q 250 2184 428 2587 
Q 606 2991 970 3192 
Q 1334 3394 1763 3394 
Q 2303 3394 2647 3120 
Q 2991 2847 3088 2344 
L 2541 2259 
Q 2463 2594 2264 2762 
Q 2066 2931 1784 2931 
Q 1359 2931 1093 2626 
Q 828 2322 828 1663 
Q 828 994 1084 691 
Q 1341 388 1753 388 
Q 2084 388 2306 591 
Q 2528 794 2588 1216 
z
" id="ArialMT-63" transform="scale(0.015625)"/>
        <path d="M 425 3934 
L 425 4581 
L 988 4581 
L 988 3934 
L 425 3934 
z
M 425 0 
L 425 3319 
L 988 3319 
L 988 0 
L 425 0 
z
" id="ArialMT-69" transform="scale(0.015625)"/>
        <path d="M 556 0 
L 556 2881 
L 59 2881 
L 59 3319 
L 556 3319 
L 556 3672 
Q 556 4006 616 4169 
Q 697 4388 901 4523 
Q 1106 4659 1475 4659 
Q 1713 4659 2000 4603 
L 1916 4113 
Q 1741 4144 1584 4144 
Q 1328 4144 1222 4034 
Q 1116 3925 1116 3625 
L 1116 3319 
L 1763 3319 
L 1763 2881 
L 1116 2881 
L 1116 0 
L 556 0 
z
" id="ArialMT-66" transform="scale(0.015625)"/>
        <path d="M 422 0 
L 422 4581 
L 984 4581 
L 984 2938 
Q 1378 3394 1978 3394 
Q 2347 3394 2619 3248 
Q 2891 3103 3008 2847 
Q 3125 2591 3125 2103 
L 3125 0 
L 2563 0 
L 2563 2103 
Q 2563 2525 2380 2717 
Q 2197 2909 1863 2909 
Q 1613 2909 1392 2779 
Q 1172 2650 1078 2428 
Q 984 2206 984 1816 
L 984 0 
L 422 0 
z
" id="ArialMT-68" transform="scale(0.015625)"/>
        <path d="M 422 0 
L 422 3319 
L 925 3319 
L 925 2853 
Q 1081 3097 1340 3245 
Q 1600 3394 1931 3394 
Q 2300 3394 2536 3241 
Q 2772 3088 2869 2813 
Q 3263 3394 3894 3394 
Q 4388 3394 4653 3120 
Q 4919 2847 4919 2278 
L 4919 0 
L 4359 0 
L 4359 2091 
Q 4359 2428 4304 2576 
Q 4250 2725 4106 2815 
Q 3963 2906 3769 2906 
Q 3419 2906 3187 2673 
Q 2956 2441 2956 1928 
L 2956 0 
L 2394 0 
L 2394 2156 
Q 2394 2531 2256 2718 
Q 2119 2906 1806 2906 
Q 1569 2906 1367 2781 
Q 1166 2656 1075 2415 
Q 984 2175 984 1722 
L 984 0 
L 422 0 
z
" id="ArialMT-6d" transform="scale(0.015625)"/>
       </defs>
       <use xlink:href="#ArialMT-73"/>
       <use x="50" xlink:href="#ArialMT-65"/>
       <use x="105.615234" xlink:href="#ArialMT-6e"/>
       <use x="161.230469" xlink:href="#ArialMT-73"/>
       <use x="211.230469" xlink:href="#ArialMT-6f"/>
       <use x="266.845703" xlink:href="#ArialMT-72"/>
       <use x="300.146484" xlink:href="#ArialMT-79"/>
       <use x="350.146484" xlink:href="#ArialMT-20"/>
       <use x="377.929688" xlink:href="#ArialMT-70"/>
       <use x="433.544922" xlink:href="#ArialMT-65"/>
       <use x="489.160156" xlink:href="#ArialMT-72"/>
       <use x="522.460938" xlink:href="#ArialMT-63"/>
       <use x="572.460938" xlink:href="#ArialMT-65"/>
       <use x="628.076172" xlink:href="#ArialMT-70"/>
       <use x="683.691406" xlink:href="#ArialMT-74"/>
       <use x="711.474609" xlink:href="#ArialMT-69"/>
       <use x="733.691406" xlink:href="#ArialMT-6f"/>
       <use x="789.306641" xlink:href="#ArialMT-6e"/>
       <use x="844.921875" xlink:href="#ArialMT-20"/>
       <use x="872.705078" xlink:href="#ArialMT-6f"/>
       <use x="928.320312" xlink:href="#ArialMT-66"/>
       <use x="956.103516" xlink:href="#ArialMT-20"/>
       <use x="983.886719" xlink:href="#ArialMT-6c"/>
       <use x="1006.103516" xlink:href="#ArialMT-69"/>
       <use x="1028.320312" xlink:href="#ArialMT-67"/>
       <use x="1083.935547" xlink:href="#ArialMT-68"/>
       <use x="1139.550781" xlink:href="#ArialMT-74"/>
       <use x="1167.333984" xlink:href="#ArialMT-20"/>
       <use x="1195.117188" xlink:href="#ArialMT-73"/>
       <use x="1245.117188" xlink:href="#ArialMT-74"/>
       <use x="1272.900391" xlink:href="#ArialMT-69"/>
       <use x="1295.117188" xlink:href="#ArialMT-6d"/>
       <use x="1378.417969" xlink:href="#ArialMT-75"/>
       <use x="1434.033203" xlink:href="#ArialMT-6c"/>
       <use x="1456.25" xlink:href="#ArialMT-75"/>
       <use x="1511.865234" xlink:href="#ArialMT-73"/>
      </g>
     </g>
    </g>
    <g id="ytick_2">
     <g id="line2d_6">
      <g>
       <use style="stroke:#000000;stroke-width:0.8;" x="117.914687" xlink:href="#mef5282b6d4" y="48.061388"/>
      </g>
     </g>
     <g id="text_7">
      <!-- retina homeostasis -->
      <g transform="translate(60.559688 50.208731)scale(0.06 -0.06)">
       <use xlink:href="#ArialMT-72"/>
       <use x="33.300781" xlink:href="#ArialMT-65"/>
       <use x="88.916016" xlink:href="#ArialMT-74"/>
       <use x="116.699219" xlink:href="#ArialMT-69"/>
       <use x="138.916016" xlink:href="#ArialMT-6e"/>
       <use x="194.53125" xlink:href="#ArialMT-61"/>
       <use x="250.146484" xlink:href="#ArialMT-20"/>
       <use x="277.929688" xlink:href="#ArialMT-68"/>
       <use x="333.544922" xlink:href="#ArialMT-6f"/>
       <use x="389.160156" xlink:href="#ArialMT-6d"/>
       <use x="472.460938" xlink:href="#ArialMT-65"/>
       <use x="528.076172" xlink:href="#ArialMT-6f"/>
       <use x="583.691406" xlink:href="#ArialMT-73"/>
       <use x="633.691406" xlink:href="#ArialMT-74"/>
       <use x="661.474609" xlink:href="#ArialMT-61"/>
       <use x="717.089844" xlink:href="#ArialMT-73"/>
       <use x="767.089844" xlink:href="#ArialMT-69"/>
       <use x="789.306641" xlink:href="#ArialMT-73"/>
      </g>
     </g>
    </g>
    <g id="ytick_3">
     <g id="line2d_7">
      <g>
       <use style="stroke:#000000;stroke-width:0.8;" x="117.914687" xlink:href="#mef5282b6d4" y="63.282188"/>
      </g>
     </g>
     <g id="text_8">
      <!-- retina development in camera-type eye -->
      <g transform="translate(7.2 65.429531)scale(0.06 -0.06)">
       <use xlink:href="#ArialMT-72"/>
       <use x="33.300781" xlink:href="#ArialMT-65"/>
       <use x="88.916016" xlink:href="#ArialMT-74"/>
       <use x="116.699219" xlink:href="#ArialMT-69"/>
       <use x="138.916016" xlink:href="#ArialMT-6e"/>
       <use x="194.53125" xlink:href="#ArialMT-61"/>
       <use x="250.146484" xlink:href="#ArialMT-20"/>
       <use x="277.929688" xlink:href="#ArialMT-64"/>
       <use x="333.544922" xlink:href="#ArialMT-65"/>
       <use x="389.160156" xlink:href="#ArialMT-76"/>
       <use x="439.160156" xlink:href="#ArialMT-65"/>
       <use x="494.775391" xlink:href="#ArialMT-6c"/>
       <use x="516.992188" xlink:href="#ArialMT-6f"/>
       <use x="572.607422" xlink:href="#ArialMT-70"/>
       <use x="628.222656" xlink:href="#ArialMT-6d"/>
       <use x="711.523438" xlink:href="#ArialMT-65"/>
       <use x="767.138672" xlink:href="#ArialMT-6e"/>
       <use x="822.753906" xlink:href="#ArialMT-74"/>
       <use x="850.537109" xlink:href="#ArialMT-20"/>
       <use x="878.320312" xlink:href="#ArialMT-69"/>
       <use x="900.537109" xlink:href="#ArialMT-6e"/>
       <use x="956.152344" xlink:href="#ArialMT-20"/>
       <use x="983.935547" xlink:href="#ArialMT-63"/>
       <use x="1033.935547" xlink:href="#ArialMT-61"/>
       <use x="1089.550781" xlink:href="#ArialMT-6d"/>
       <use x="1172.851562" xlink:href="#ArialMT-65"/>
       <use x="1228.466797" xlink:href="#ArialMT-72"/>
       <use x="1261.767578" xlink:href="#ArialMT-61"/>
       <use x="1317.382812" xlink:href="#ArialMT-2d"/>
       <use x="1350.683594" xlink:href="#ArialMT-74"/>
       <use x="1378.466797" xlink:href="#ArialMT-79"/>
       <use x="1428.466797" xlink:href="#ArialMT-70"/>
       <use x="1484.082031" xlink:href="#ArialMT-65"/>
       <use x="1539.697266" xlink:href="#ArialMT-20"/>
       <use x="1567.480469" xlink:href="#ArialMT-65"/>
       <use x="1623.095703" xlink:href="#ArialMT-79"/>
       <use x="1673.095703" xlink:href="#ArialMT-65"/>
      </g>
     </g>
    </g>
    <g id="ytick_4">
     <g id="line2d_8">
      <g>
       <use style="stroke:#000000;stroke-width:0.8;" x="117.914687" xlink:href="#mef5282b6d4" y="78.502988"/>
      </g>
     </g>
     <g id="text_9">
      <!-- protein localization to non-motile cilium -->
      <g transform="translate(7.872188 80.650331)scale(0.06 -0.06)">
       <defs>
        <path d="M 125 0 
L 125 456 
L 2238 2881 
Q 1878 2863 1603 2863 
L 250 2863 
L 250 3319 
L 2963 3319 
L 2963 2947 
L 1166 841 
L 819 456 
Q 1197 484 1528 484 
L 3063 484 
L 3063 0 
L 125 0 
z
" id="ArialMT-7a" transform="scale(0.015625)"/>
       </defs>
       <use xlink:href="#ArialMT-70"/>
       <use x="55.615234" xlink:href="#ArialMT-72"/>
       <use x="88.916016" xlink:href="#ArialMT-6f"/>
       <use x="144.53125" xlink:href="#ArialMT-74"/>
       <use x="172.314453" xlink:href="#ArialMT-65"/>
       <use x="227.929688" xlink:href="#ArialMT-69"/>
       <use x="250.146484" xlink:href="#ArialMT-6e"/>
       <use x="305.761719" xlink:href="#ArialMT-20"/>
       <use x="333.544922" xlink:href="#ArialMT-6c"/>
       <use x="355.761719" xlink:href="#ArialMT-6f"/>
       <use x="411.376953" xlink:href="#ArialMT-63"/>
       <use x="461.376953" xlink:href="#ArialMT-61"/>
       <use x="516.992188" xlink:href="#ArialMT-6c"/>
       <use x="539.208984" xlink:href="#ArialMT-69"/>
       <use x="561.425781" xlink:href="#ArialMT-7a"/>
       <use x="611.425781" xlink:href="#ArialMT-61"/>
       <use x="667.041016" xlink:href="#ArialMT-74"/>
       <use x="694.824219" xlink:href="#ArialMT-69"/>
       <use x="717.041016" xlink:href="#ArialMT-6f"/>
       <use x="772.65625" xlink:href="#ArialMT-6e"/>
       <use x="828.271484" xlink:href="#ArialMT-20"/>
       <use x="856.054688" xlink:href="#ArialMT-74"/>
       <use x="883.837891" xlink:href="#ArialMT-6f"/>
       <use x="939.453125" xlink:href="#ArialMT-20"/>
       <use x="967.236328" xlink:href="#ArialMT-6e"/>
       <use x="1022.851562" xlink:href="#ArialMT-6f"/>
       <use x="1078.466797" xlink:href="#ArialMT-6e"/>
       <use x="1134.082031" xlink:href="#ArialMT-2d"/>
       <use x="1167.382812" xlink:href="#ArialMT-6d"/>
       <use x="1250.683594" xlink:href="#ArialMT-6f"/>
       <use x="1306.298828" xlink:href="#ArialMT-74"/>
       <use x="1334.082031" xlink:href="#ArialMT-69"/>
       <use x="1356.298828" xlink:href="#ArialMT-6c"/>
       <use x="1378.515625" xlink:href="#ArialMT-65"/>
       <use x="1434.130859" xlink:href="#ArialMT-20"/>
       <use x="1461.914062" xlink:href="#ArialMT-63"/>
       <use x="1511.914062" xlink:href="#ArialMT-69"/>
       <use x="1534.130859" xlink:href="#ArialMT-6c"/>
       <use x="1556.347656" xlink:href="#ArialMT-69"/>
       <use x="1578.564453" xlink:href="#ArialMT-75"/>
       <use x="1634.179688" xlink:href="#ArialMT-6d"/>
      </g>
     </g>
    </g>
    <g id="ytick_5">
     <g id="line2d_9">
      <g>
       <use style="stroke:#000000;stroke-width:0.8;" x="117.914687" xlink:href="#mef5282b6d4" y="93.723788"/>
      </g>
     </g>
     <g id="text_10">
      <!-- detection of visible light -->
      <g transform="translate(48.882188 95.907694)scale(0.06 -0.06)">
       <defs>
        <path d="M 941 0 
L 419 0 
L 419 4581 
L 981 4581 
L 981 2947 
Q 1338 3394 1891 3394 
Q 2197 3394 2470 3270 
Q 2744 3147 2920 2923 
Q 3097 2700 3197 2384 
Q 3297 2069 3297 1709 
Q 3297 856 2875 390 
Q 2453 -75 1863 -75 
Q 1275 -75 941 416 
L 941 0 
z
M 934 1684 
Q 934 1088 1097 822 
Q 1363 388 1816 388 
Q 2184 388 2453 708 
Q 2722 1028 2722 1663 
Q 2722 2313 2464 2622 
Q 2206 2931 1841 2931 
Q 1472 2931 1203 2611 
Q 934 2291 934 1684 
z
" id="ArialMT-62" transform="scale(0.015625)"/>
       </defs>
       <use xlink:href="#ArialMT-64"/>
       <use x="55.615234" xlink:href="#ArialMT-65"/>
       <use x="111.230469" xlink:href="#ArialMT-74"/>
       <use x="139.013672" xlink:href="#ArialMT-65"/>
       <use x="194.628906" xlink:href="#ArialMT-63"/>
       <use x="244.628906" xlink:href="#ArialMT-74"/>
       <use x="272.412109" xlink:href="#ArialMT-69"/>
       <use x="294.628906" xlink:href="#ArialMT-6f"/>
       <use x="350.244141" xlink:href="#ArialMT-6e"/>
       <use x="405.859375" xlink:href="#ArialMT-20"/>
       <use x="433.642578" xlink:href="#ArialMT-6f"/>
       <use x="489.257812" xlink:href="#ArialMT-66"/>
       <use x="517.041016" xlink:href="#ArialMT-20"/>
       <use x="544.824219" xlink:href="#ArialMT-76"/>
       <use x="594.824219" xlink:href="#ArialMT-69"/>
       <use x="617.041016" xlink:href="#ArialMT-73"/>
       <use x="667.041016" xlink:href="#ArialMT-69"/>
       <use x="689.257812" xlink:href="#ArialMT-62"/>
       <use x="744.873047" xlink:href="#ArialMT-6c"/>
       <use x="767.089844" xlink:href="#ArialMT-65"/>
       <use x="822.705078" xlink:href="#ArialMT-20"/>
       <use x="850.488281" xlink:href="#ArialMT-6c"/>
       <use x="872.705078" xlink:href="#ArialMT-69"/>
       <use x="894.921875" xlink:href="#ArialMT-67"/>
       <use x="950.537109" xlink:href="#ArialMT-68"/>
       <use x="1006.152344" xlink:href="#ArialMT-74"/>
      </g>
     </g>
    </g>
   </g>
   <g id="line2d_10">
    <path clip-path="url(#p3b14ec017c)" style="fill:none;stroke:#424242;stroke-linecap:square;stroke-width:1.8;"/>
   </g>
   <g id="line2d_11">
    <path clip-path="url(#p3b14ec017c)" style="fill:none;stroke:#424242;stroke-linecap:square;stroke-width:1.8;"/>
   </g>
   <g id="line2d_12">
    <path clip-path="url(#p3b14ec017c)" style="fill:none;stroke:#424242;stroke-linecap:square;stroke-width:1.8;"/>
   </g>
   <g id="line2d_13">
    <path clip-path="url(#p3b14ec017c)" style="fill:none;stroke:#424242;stroke-linecap:square;stroke-width:1.8;"/>
   </g>
   <g id="line2d_14">
    <path clip-path="url(#p3b14ec017c)" style="fill:none;stroke:#424242;stroke-linecap:square;stroke-width:1.8;"/>
   </g>
   <g id="patch_8">
    <path d="M 117.914687 101.334188 
L 117.914687 25.230188 
" style="fill:none;stroke:#000000;stroke-linecap:square;stroke-linejoin:miter;stroke-width:0.8;"/>
   </g>
   <g id="patch_9">
    <path d="M 196.034688 101.334188 
L 196.034688 25.230188 
" style="fill:none;stroke:#000000;stroke-linecap:square;stroke-linejoin:miter;stroke-width:0.8;"/>
   </g>
   <g id="patch_10">
    <path d="M 117.914687 101.334188 
L 196.034688 101.334188 
" style="fill:none;stroke:#000000;stroke-linecap:square;stroke-linejoin:miter;stroke-width:0.8;"/>
   </g>
   <g id="patch_11">
    <path d="M 117.914687 25.230188 
L 196.034688 25.230188 
" style="fill:none;stroke:#000000;stroke-linecap:square;stroke-linejoin:miter;stroke-width:0.8;"/>
   </g>
   <g id="text_11">
    <!-- e -->
    <g transform="translate(67.150031 15.019856)scale(0.07 -0.07)">
     <defs>
      <path d="M 2381 1056 
L 3256 909 
Q 3088 428 2723 176 
Q 2359 -75 1813 -75 
Q 947 -75 531 491 
Q 203 944 203 1634 
Q 203 2459 634 2926 
Q 1066 3394 1725 3394 
Q 2466 3394 2894 2905 
Q 3322 2416 3303 1406 
L 1103 1406 
Q 1113 1016 1316 798 
Q 1519 581 1822 581 
Q 2028 581 2168 693 
Q 2309 806 2381 1056 
z
M 2431 1944 
Q 2422 2325 2234 2523 
Q 2047 2722 1778 2722 
Q 1491 2722 1303 2513 
Q 1116 2303 1119 1944 
L 2431 1944 
z
" id="Arial-BoldMT-65" transform="scale(0.015625)"/>
     </defs>
     <use xlink:href="#Arial-BoldMT-65"/>
    </g>
   </g>
   <g id="text_12">
    <!-- Down-regulated genes in $\itCrx^{K88N}$ mutants -->
    <g transform="translate(90.894688 13.57)scale(0.07 -0.07)">
     <defs>
      <path d="M 494 0 
L 494 4581 
L 2072 4581 
Q 2606 4581 2888 4516 
Q 3281 4425 3559 4188 
Q 3922 3881 4101 3404 
Q 4281 2928 4281 2316 
Q 4281 1794 4159 1391 
Q 4038 988 3847 723 
Q 3656 459 3429 307 
Q 3203 156 2883 78 
Q 2563 0 2147 0 
L 494 0 
z
M 1100 541 
L 2078 541 
Q 2531 541 2789 625 
Q 3047 709 3200 863 
Q 3416 1078 3536 1442 
Q 3656 1806 3656 2325 
Q 3656 3044 3420 3430 
Q 3184 3816 2847 3947 
Q 2603 4041 2063 4041 
L 1100 4041 
L 1100 541 
z
" id="ArialMT-44" transform="scale(0.015625)"/>
      <path d="M 1034 0 
L 19 3319 
L 600 3319 
L 1128 1403 
L 1325 691 
Q 1338 744 1497 1375 
L 2025 3319 
L 2603 3319 
L 3100 1394 
L 3266 759 
L 3456 1400 
L 4025 3319 
L 4572 3319 
L 3534 0 
L 2950 0 
L 2422 1988 
L 2294 2553 
L 1622 0 
L 1034 0 
z
" id="ArialMT-77" transform="scale(0.015625)"/>
      <path d="M 4447 4306 
L 4319 3641 
Q 4019 3944 3683 4091 
Q 3347 4238 2956 4238 
Q 2422 4238 2017 3981 
Q 1613 3725 1319 3200 
Q 1131 2863 1032 2486 
Q 934 2109 934 1728 
Q 934 1091 1264 756 
Q 1594 422 2222 422 
Q 2656 422 3056 561 
Q 3456 700 3834 978 
L 3688 231 
Q 3316 72 2936 -9 
Q 2556 -91 2175 -91 
Q 1278 -91 773 396 
Q 269 884 269 1753 
Q 269 2309 461 2846 
Q 653 3384 1013 3828 
Q 1394 4300 1883 4525 
Q 2372 4750 3022 4750 
Q 3422 4750 3780 4639 
Q 4138 4528 4447 4306 
z
" id="DejaVuSans-Oblique-43" transform="scale(0.015625)"/>
      <path d="M 2853 2969 
Q 2766 3016 2653 3041 
Q 2541 3066 2413 3066 
Q 1953 3066 1609 2717 
Q 1266 2369 1153 1784 
L 800 0 
L 225 0 
L 909 3500 
L 1484 3500 
L 1375 2956 
Q 1603 3259 1920 3421 
Q 2238 3584 2597 3584 
Q 2691 3584 2781 3573 
Q 2872 3563 2963 3538 
L 2853 2969 
z
" id="DejaVuSans-Oblique-72" transform="scale(0.015625)"/>
      <path d="M 3841 3500 
L 2234 1784 
L 3219 0 
L 2559 0 
L 1819 1388 
L 531 0 
L -166 0 
L 1556 1844 
L 641 3500 
L 1300 3500 
L 1972 2234 
L 3144 3500 
L 3841 3500 
z
" id="DejaVuSans-Oblique-78" transform="scale(0.015625)"/>
      <path d="M 1081 4666 
L 1716 4666 
L 1331 2700 
L 3781 4666 
L 4622 4666 
L 1850 2438 
L 3878 0 
L 3109 0 
L 1247 2272 
L 806 0 
L 172 0 
L 1081 4666 
z
" id="DejaVuSans-Oblique-4b" transform="scale(0.015625)"/>
      <path d="M 2034 2216 
Q 1584 2216 1326 1975 
Q 1069 1734 1069 1313 
Q 1069 891 1326 650 
Q 1584 409 2034 409 
Q 2484 409 2743 651 
Q 3003 894 3003 1313 
Q 3003 1734 2745 1975 
Q 2488 2216 2034 2216 
z
M 1403 2484 
Q 997 2584 770 2862 
Q 544 3141 544 3541 
Q 544 4100 942 4425 
Q 1341 4750 2034 4750 
Q 2731 4750 3128 4425 
Q 3525 4100 3525 3541 
Q 3525 3141 3298 2862 
Q 3072 2584 2669 2484 
Q 3125 2378 3379 2068 
Q 3634 1759 3634 1313 
Q 3634 634 3220 271 
Q 2806 -91 2034 -91 
Q 1263 -91 848 271 
Q 434 634 434 1313 
Q 434 1759 690 2068 
Q 947 2378 1403 2484 
z
M 1172 3481 
Q 1172 3119 1398 2916 
Q 1625 2713 2034 2713 
Q 2441 2713 2670 2916 
Q 2900 3119 2900 3481 
Q 2900 3844 2670 4047 
Q 2441 4250 2034 4250 
Q 1625 4250 1398 4047 
Q 1172 3844 1172 3481 
z
" id="DejaVuSans-38" transform="scale(0.015625)"/>
      <path d="M 1081 4666 
L 1931 4666 
L 3219 666 
L 4000 4666 
L 4616 4666 
L 3706 0 
L 2853 0 
L 1569 4025 
L 788 0 
L 172 0 
L 1081 4666 
z
" id="DejaVuSans-Oblique-4e" transform="scale(0.015625)"/>
     </defs>
     <use transform="translate(0 0.765625)" xlink:href="#ArialMT-44"/>
     <use transform="translate(72.216797 0.765625)" xlink:href="#ArialMT-6f"/>
     <use transform="translate(127.832031 0.765625)" xlink:href="#ArialMT-77"/>
     <use transform="translate(200.048828 0.765625)" xlink:href="#ArialMT-6e"/>
     <use transform="translate(255.664062 0.765625)" xlink:href="#ArialMT-2d"/>
     <use transform="translate(288.964844 0.765625)" xlink:href="#ArialMT-72"/>
     <use transform="translate(322.265625 0.765625)" xlink:href="#ArialMT-65"/>
     <use transform="translate(377.880859 0.765625)" xlink:href="#ArialMT-67"/>
     <use transform="translate(433.496094 0.765625)" xlink:href="#ArialMT-75"/>
     <use transform="translate(489.111328 0.765625)" xlink:href="#ArialMT-6c"/>
     <use transform="translate(511.328125 0.765625)" xlink:href="#ArialMT-61"/>
     <use transform="translate(566.943359 0.765625)" xlink:href="#ArialMT-74"/>
     <use transform="translate(594.726562 0.765625)" xlink:href="#ArialMT-65"/>
     <use transform="translate(650.341797 0.765625)" xlink:href="#ArialMT-64"/>
     <use transform="translate(705.957031 0.765625)" xlink:href="#ArialMT-20"/>
     <use transform="translate(733.740234 0.765625)" xlink:href="#ArialMT-67"/>
     <use transform="translate(789.355469 0.765625)" xlink:href="#ArialMT-65"/>
     <use transform="translate(844.970703 0.765625)" xlink:href="#ArialMT-6e"/>
     <use transform="translate(900.585938 0.765625)" xlink:href="#ArialMT-65"/>
     <use transform="translate(956.201172 0.765625)" xlink:href="#ArialMT-73"/>
     <use transform="translate(1006.201172 0.765625)" xlink:href="#ArialMT-20"/>
     <use transform="translate(1033.984375 0.765625)" xlink:href="#ArialMT-69"/>
     <use transform="translate(1056.201172 0.765625)" xlink:href="#ArialMT-6e"/>
     <use transform="translate(1111.816406 0.765625)" xlink:href="#ArialMT-20"/>
     <use transform="translate(1139.599609 0.765625)" xlink:href="#DejaVuSans-Oblique-43"/>
     <use transform="translate(1209.423828 0.765625)" xlink:href="#DejaVuSans-Oblique-72"/>
     <use transform="translate(1250.537109 0.765625)" xlink:href="#DejaVuSans-Oblique-78"/>
     <use transform="translate(1314.182943 39.046875)scale(0.7)" xlink:href="#DejaVuSans-Oblique-4b"/>
     <use transform="translate(1360.086263 39.046875)scale(0.7)" xlink:href="#DejaVuSans-38"/>
     <use transform="translate(1404.622396 39.046875)scale(0.7)" xlink:href="#DejaVuSans-38"/>
     <use transform="translate(1449.158529 39.046875)scale(0.7)" xlink:href="#DejaVuSans-Oblique-4e"/>
     <use transform="translate(1504.256185 0.765625)" xlink:href="#ArialMT-20"/>
     <use transform="translate(1532.039388 0.765625)" xlink:href="#ArialMT-6d"/>
     <use transform="translate(1615.340169 0.765625)" xlink:href="#ArialMT-75"/>
     <use transform="translate(1670.955404 0.765625)" xlink:href="#ArialMT-74"/>
     <use transform="translate(1698.738607 0.765625)" xlink:href="#ArialMT-61"/>
     <use transform="translate(1754.353841 0.765625)" xlink:href="#ArialMT-6e"/>
     <use transform="translate(1809.969076 0.765625)" xlink:href="#ArialMT-74"/>
     <use transform="translate(1837.752279 0.765625)" xlink:href="#ArialMT-73"/>
    </g>
    <!-- top GO terms -->
    <g transform="translate(135.970859 21.230188)scale(0.07 -0.07)">
     <defs>
      <path d="M 2638 1797 
L 2638 2334 
L 4578 2338 
L 4578 638 
Q 4131 281 3656 101 
Q 3181 -78 2681 -78 
Q 2006 -78 1454 211 
Q 903 500 622 1047 
Q 341 1594 341 2269 
Q 341 2938 620 3517 
Q 900 4097 1425 4378 
Q 1950 4659 2634 4659 
Q 3131 4659 3532 4498 
Q 3934 4338 4162 4050 
Q 4391 3763 4509 3300 
L 3963 3150 
Q 3859 3500 3706 3700 
Q 3553 3900 3268 4020 
Q 2984 4141 2638 4141 
Q 2222 4141 1919 4014 
Q 1616 3888 1430 3681 
Q 1244 3475 1141 3228 
Q 966 2803 966 2306 
Q 966 1694 1177 1281 
Q 1388 869 1791 669 
Q 2194 469 2647 469 
Q 3041 469 3416 620 
Q 3791 772 3984 944 
L 3984 1797 
L 2638 1797 
z
" id="ArialMT-47" transform="scale(0.015625)"/>
      <path d="M 309 2231 
Q 309 3372 921 4017 
Q 1534 4663 2503 4663 
Q 3138 4663 3647 4359 
Q 4156 4056 4423 3514 
Q 4691 2972 4691 2284 
Q 4691 1588 4409 1038 
Q 4128 488 3612 205 
Q 3097 -78 2500 -78 
Q 1853 -78 1343 234 
Q 834 547 571 1087 
Q 309 1628 309 2231 
z
M 934 2222 
Q 934 1394 1379 917 
Q 1825 441 2497 441 
Q 3181 441 3623 922 
Q 4066 1403 4066 2288 
Q 4066 2847 3877 3264 
Q 3688 3681 3323 3911 
Q 2959 4141 2506 4141 
Q 1863 4141 1398 3698 
Q 934 3256 934 2222 
z
" id="ArialMT-4f" transform="scale(0.015625)"/>
     </defs>
     <use xlink:href="#ArialMT-74"/>
     <use x="27.783203" xlink:href="#ArialMT-6f"/>
     <use x="83.398438" xlink:href="#ArialMT-70"/>
     <use x="139.013672" xlink:href="#ArialMT-20"/>
     <use x="166.796875" xlink:href="#ArialMT-47"/>
     <use x="244.580078" xlink:href="#ArialMT-4f"/>
     <use x="322.363281" xlink:href="#ArialMT-20"/>
     <use x="350.146484" xlink:href="#ArialMT-74"/>
     <use x="377.929688" xlink:href="#ArialMT-65"/>
     <use x="433.544922" xlink:href="#ArialMT-72"/>
     <use x="466.845703" xlink:href="#ArialMT-6d"/>
     <use x="550.146484" xlink:href="#ArialMT-73"/>
    </g>
   </g>
   <g id="legend_1"/>
  </g>
 </g>
 <defs>
  <clipPath id="p3b14ec017c">
   <rect height="76.104" width="78.12" x="117.914687" y="25.230188"/>
  </clipPath>
 </defs>
</svg>
