<?xml version="1.0" encoding="utf-8" standalone="no"?>
<!DOCTYPE svg PUBLIC "-//W3C//DTD SVG 1.1//EN"
  "http://www.w3.org/Graphics/SVG/1.1/DTD/svg11.dtd">
<svg height="138.882397pt" version="1.1" viewBox="0 0 127.441182 138.882397" width="127.441182pt" xmlns="http://www.w3.org/2000/svg" xmlns:xlink="http://www.w3.org/1999/xlink">
 <metadata>
  <rdf:RDF xmlns:cc="http://creativecommons.org/ns#" xmlns:dc="http://purl.org/dc/elements/1.1/" xmlns:rdf="http://www.w3.org/1999/02/22-rdf-syntax-ns#">
   <cc:Work>
    <dc:type rdf:resource="http://purl.org/dc/dcmitype/StillImage"/>
    <dc:date>2022-02-17T16:20:31.029500</dc:date>
    <dc:format>image/svg+xml</dc:format>
    <dc:creator>
     <cc:Agent>
      <dc:title>Matplotlib v3.4.2, https://matplotlib.org/</dc:title>
     </cc:Agent>
    </dc:creator>
   </cc:Work>
  </rdf:RDF>
 </metadata>
 <defs>
  <style type="text/css">*{stroke-linecap:butt;stroke-linejoin:round;}</style>
 </defs>
 <g id="figure_1">
  <g id="patch_1">
   <path d="M 0 138.882397 
L 127.441182 138.882397 
L 127.441182 0 
L 0 0 
z
" style="fill:none;"/>
  </g>
  <g id="axes_1">
   <g id="patch_2">
    <path clip-path="url(#p4380343551)" d="M 53.743155 43.053579 
C 55.09585 42.581068 56.538709 42.42344 57.961519 42.592733 
C 59.38433 42.762027 60.749917 43.253819 61.953971 44.030546 
C 63.086005 42.877671 64.452341 41.981001 65.960484 41.401238 
C 67.468627 40.821474 69.08376 40.572001 70.696545 40.669706 
C 67.826432 40.412715 64.936297 40.485555 62.082774 40.886798 
C 59.229251 41.288042 56.431101 42.015051 53.743155 43.053579 
M 52.98244 43.357028 
C 48.772794 45.089474 44.911435 47.569966 41.585596 50.678227 
C 38.259757 53.786488 35.524076 57.471455 33.511203 61.554448 
C 31.49833 65.637442 30.241332 70.051384 29.801161 74.582249 
C 29.36099 79.113115 29.744876 83.686468 30.934206 88.080554 
C 32.123535 92.474639 34.098769 96.617269 36.764131 100.307572 
C 39.429493 103.997875 42.741195 107.175226 46.538658 109.685559 
C 50.33612 112.195892 54.556956 113.997966 58.996504 115.004402 
C 63.436051 116.010837 68.021374 116.205099 72.530138 115.577768 
C 77.038902 114.950438 81.397033 113.511821 85.393213 111.331674 
C 89.389392 109.151527 92.957969 106.265666 95.925907 102.814024 
C 98.893845 99.362382 101.212386 95.401662 102.769107 91.123916 
C 104.325828 86.84617 105.095154 82.321674 105.039782 77.769814 
C 104.984411 73.217954 104.10525 68.713511 102.444931 64.474899 
C 100.784611 60.236287 98.370409 56.33314 95.319385 52.954717 
C 92.268361 49.576293 88.63064 46.778095 84.582609 44.695803 
C 80.534578 42.613511 76.142741 41.281334 71.620051 40.763869 
C 73.39546 41.01898 75.084831 41.693348 76.547874 42.730972 
C 78.010917 43.768596 79.20598 45.139935 80.033821 46.731109 
C 80.861663 48.322284 81.298715 50.087994 81.308684 51.88161 
C 81.318653 53.675226 80.901254 55.445685 80.09115 57.045963 
C 79.281046 58.646241 78.1013 60.030779 76.649881 61.084601 
C 75.198463 62.138423 73.516692 62.831528 71.744229 63.106358 
C 69.971765 63.381188 68.15907 63.229918 66.456674 62.665112 
C 64.754279 62.100305 63.210648 61.138041 61.953971 59.858229 
C 60.864822 60.560831 59.642263 61.031085 58.363018 61.239479 
C 57.083773 61.447873 55.775173 61.389956 54.519341 61.06936 
C 53.263508 60.748765 52.087275 60.172342 51.064456 59.376266 
C 50.041638 58.580189 49.194087 57.581467 48.574992 56.442776 
C 47.955897 55.304084 47.578487 54.049752 47.466444 52.758496 
C 47.354402 51.46724 47.510122 50.166648 47.923831 48.93834 
C 48.337541 47.710032 49.000402 46.580252 49.870815 45.619899 
C 50.741228 44.659547 51.800597 43.88914 52.98244 43.357028 
" style="fill:#a9a9a9;opacity:0.4;"/>
   </g>
   <g id="patch_3">
    <path clip-path="url(#p4380343551)" d="M 61.953971 44.030546 
C 60.749917 43.253819 59.38433 42.762027 57.961519 42.592733 
C 56.538709 42.42344 55.09585 42.581068 53.743155 43.053579 
C 53.615825 43.102775 53.488762 43.152662 53.361974 43.203238 
C 53.235185 43.253814 53.108672 43.305078 52.98244 43.357028 
C 51.800597 43.88914 50.741228 44.659547 49.870815 45.619899 
C 49.000402 46.580252 48.337541 47.710032 47.923831 48.93834 
C 47.510122 50.166648 47.354402 51.46724 47.466444 52.758496 
C 47.578487 54.049752 47.955897 55.304084 48.574992 56.442776 
C 49.194087 57.581467 50.041638 58.580189 51.064456 59.376266 
C 52.087275 60.172342 53.263508 60.748765 54.519341 61.06936 
C 55.775173 61.389956 57.083773 61.447873 58.363018 61.239479 
C 59.642263 61.031085 60.864822 60.560831 61.953971 59.858229 
C 59.880849 57.746941 58.718153 54.903335 58.718153 51.944387 
C 58.718153 48.98544 59.880849 46.141834 61.953971 44.030546 
" style="fill:#ffd878;opacity:0.4;"/>
   </g>
   <g id="patch_4">
    <path clip-path="url(#p4380343551)" d="M 61.953971 59.858229 
C 63.210648 61.138041 64.754279 62.100305 66.456674 62.665112 
C 68.15907 63.229918 69.971765 63.381188 71.744229 63.106358 
C 73.516692 62.831528 75.198463 62.138423 76.649881 61.084601 
C 78.1013 60.030779 79.281046 58.646241 80.09115 57.045963 
C 80.901254 55.445685 81.318653 53.675226 81.308684 51.88161 
C 81.298715 50.087994 80.861663 48.322284 80.033821 46.731109 
C 79.20598 45.139935 78.010917 43.768596 76.547874 42.730972 
C 75.084831 41.693348 73.39546 41.01898 71.620051 40.763869 
C 71.466334 40.746281 71.31251 40.729639 71.158588 40.713945 
C 71.004666 40.698251 70.850648 40.683504 70.696545 40.669706 
C 69.08376 40.572001 67.468627 40.821474 65.960484 41.401238 
C 64.452341 41.981001 63.086005 42.877671 61.953971 44.030546 
C 63.276934 44.88398 64.365015 46.055686 65.118333 47.438109 
C 65.871651 48.820532 66.266429 50.370036 66.266429 51.944387 
C 66.266429 53.518738 65.871651 55.068243 65.118333 56.450666 
C 64.365015 57.833089 63.276934 59.004795 61.953971 59.858229 
" style="fill:#7c98c1;opacity:0.4;"/>
   </g>
   <g id="patch_5">
    <path clip-path="url(#p4380343551)" d="M 61.953971 59.858229 
C 63.276934 59.004795 64.365015 57.833089 65.118333 56.450666 
C 65.871651 55.068243 66.266429 53.518738 66.266429 51.944387 
C 66.266429 50.370036 65.871651 48.820532 65.118333 47.438109 
C 64.365015 46.055686 63.276934 44.88398 61.953971 44.030546 
C 59.880849 46.141834 58.718153 48.98544 58.718153 51.944387 
C 58.718153 54.903335 59.880849 57.746941 61.953971 59.858229 
" style="fill:#9a8e70;opacity:0.4;"/>
   </g>
   <g id="text_1">
    <!-- 3390 -->
    <g transform="translate(63.069436 84.478843)scale(0.05 -0.05)">
     <defs>
      <path d="M 269 1209 
L 831 1284 
Q 928 806 1161 595 
Q 1394 384 1728 384 
Q 2125 384 2398 659 
Q 2672 934 2672 1341 
Q 2672 1728 2419 1979 
Q 2166 2231 1775 2231 
Q 1616 2231 1378 2169 
L 1441 2663 
Q 1497 2656 1531 2656 
Q 1891 2656 2178 2843 
Q 2466 3031 2466 3422 
Q 2466 3731 2256 3934 
Q 2047 4138 1716 4138 
Q 1388 4138 1169 3931 
Q 950 3725 888 3313 
L 325 3413 
Q 428 3978 793 4289 
Q 1159 4600 1703 4600 
Q 2078 4600 2393 4439 
Q 2709 4278 2876 4000 
Q 3044 3722 3044 3409 
Q 3044 3113 2884 2869 
Q 2725 2625 2413 2481 
Q 2819 2388 3044 2092 
Q 3269 1797 3269 1353 
Q 3269 753 2831 336 
Q 2394 -81 1725 -81 
Q 1122 -81 723 278 
Q 325 638 269 1209 
z
" id="ArialMT-33" transform="scale(0.015625)"/>
      <path d="M 350 1059 
L 891 1109 
Q 959 728 1153 556 
Q 1347 384 1650 384 
Q 1909 384 2104 503 
Q 2300 622 2425 820 
Q 2550 1019 2634 1356 
Q 2719 1694 2719 2044 
Q 2719 2081 2716 2156 
Q 2547 1888 2255 1720 
Q 1963 1553 1622 1553 
Q 1053 1553 659 1965 
Q 266 2378 266 3053 
Q 266 3750 677 4175 
Q 1088 4600 1706 4600 
Q 2153 4600 2523 4359 
Q 2894 4119 3086 3673 
Q 3278 3228 3278 2384 
Q 3278 1506 3087 986 
Q 2897 466 2520 194 
Q 2144 -78 1638 -78 
Q 1100 -78 759 220 
Q 419 519 350 1059 
z
M 2653 3081 
Q 2653 3566 2395 3850 
Q 2138 4134 1775 4134 
Q 1400 4134 1122 3828 
Q 844 3522 844 3034 
Q 844 2597 1108 2323 
Q 1372 2050 1759 2050 
Q 2150 2050 2401 2323 
Q 2653 2597 2653 3081 
z
" id="ArialMT-39" transform="scale(0.015625)"/>
      <path d="M 266 2259 
Q 266 3072 433 3567 
Q 600 4063 929 4331 
Q 1259 4600 1759 4600 
Q 2128 4600 2406 4451 
Q 2684 4303 2865 4023 
Q 3047 3744 3150 3342 
Q 3253 2941 3253 2259 
Q 3253 1453 3087 958 
Q 2922 463 2592 192 
Q 2263 -78 1759 -78 
Q 1097 -78 719 397 
Q 266 969 266 2259 
z
M 844 2259 
Q 844 1131 1108 757 
Q 1372 384 1759 384 
Q 2147 384 2411 759 
Q 2675 1134 2675 2259 
Q 2675 3391 2411 3762 
Q 2147 4134 1753 4134 
Q 1366 4134 1134 3806 
Q 844 3388 844 2259 
z
" id="ArialMT-30" transform="scale(0.015625)"/>
     </defs>
     <use xlink:href="#ArialMT-33"/>
     <use x="55.615234" xlink:href="#ArialMT-33"/>
     <use x="111.230469" xlink:href="#ArialMT-39"/>
     <use x="166.845703" xlink:href="#ArialMT-30"/>
    </g>
   </g>
   <g id="text_2">
    <!-- 171 -->
    <g transform="translate(48.626828 54.296057)scale(0.05 -0.05)">
     <defs>
      <path d="M 2384 0 
L 1822 0 
L 1822 3584 
Q 1619 3391 1289 3197 
Q 959 3003 697 2906 
L 697 3450 
Q 1169 3672 1522 3987 
Q 1875 4303 2022 4600 
L 2384 4600 
L 2384 0 
z
" id="ArialMT-31" transform="scale(0.015625)"/>
      <path d="M 303 3981 
L 303 4522 
L 3269 4522 
L 3269 4084 
Q 2831 3619 2401 2847 
Q 1972 2075 1738 1259 
Q 1569 684 1522 0 
L 944 0 
Q 953 541 1156 1306 
Q 1359 2072 1739 2783 
Q 2119 3494 2547 3981 
L 303 3981 
z
" id="ArialMT-37" transform="scale(0.015625)"/>
     </defs>
     <use xlink:href="#ArialMT-31"/>
     <use x="55.615234" xlink:href="#ArialMT-37"/>
     <use x="111.230469" xlink:href="#ArialMT-31"/>
    </g>
   </g>
   <g id="text_3">
    <!-- 278 -->
    <g transform="translate(69.938443 54.745657)scale(0.05 -0.05)">
     <defs>
      <path d="M 3222 541 
L 3222 0 
L 194 0 
Q 188 203 259 391 
Q 375 700 629 1000 
Q 884 1300 1366 1694 
Q 2113 2306 2375 2664 
Q 2638 3022 2638 3341 
Q 2638 3675 2398 3904 
Q 2159 4134 1775 4134 
Q 1369 4134 1125 3890 
Q 881 3647 878 3216 
L 300 3275 
Q 359 3922 746 4261 
Q 1134 4600 1788 4600 
Q 2447 4600 2831 4234 
Q 3216 3869 3216 3328 
Q 3216 3053 3103 2787 
Q 2991 2522 2730 2228 
Q 2469 1934 1863 1422 
Q 1356 997 1212 845 
Q 1069 694 975 541 
L 3222 541 
z
" id="ArialMT-32" transform="scale(0.015625)"/>
      <path d="M 1131 2484 
Q 781 2613 612 2850 
Q 444 3088 444 3419 
Q 444 3919 803 4259 
Q 1163 4600 1759 4600 
Q 2359 4600 2725 4251 
Q 3091 3903 3091 3403 
Q 3091 3084 2923 2848 
Q 2756 2613 2416 2484 
Q 2838 2347 3058 2040 
Q 3278 1734 3278 1309 
Q 3278 722 2862 322 
Q 2447 -78 1769 -78 
Q 1091 -78 675 323 
Q 259 725 259 1325 
Q 259 1772 486 2073 
Q 713 2375 1131 2484 
z
M 1019 3438 
Q 1019 3113 1228 2906 
Q 1438 2700 1772 2700 
Q 2097 2700 2305 2904 
Q 2513 3109 2513 3406 
Q 2513 3716 2298 3927 
Q 2084 4138 1766 4138 
Q 1444 4138 1231 3931 
Q 1019 3725 1019 3438 
z
M 838 1322 
Q 838 1081 952 856 
Q 1066 631 1291 507 
Q 1516 384 1775 384 
Q 2178 384 2440 643 
Q 2703 903 2703 1303 
Q 2703 1709 2433 1975 
Q 2163 2241 1756 2241 
Q 1359 2241 1098 1978 
Q 838 1716 838 1322 
z
" id="ArialMT-38" transform="scale(0.015625)"/>
     </defs>
     <use xlink:href="#ArialMT-32"/>
     <use x="55.615234" xlink:href="#ArialMT-37"/>
     <use x="111.230469" xlink:href="#ArialMT-38"/>
    </g>
   </g>
   <g id="text_4">
    <!-- 73 -->
    <g transform="translate(59.711823 53.236965)scale(0.05 -0.05)">
     <use xlink:href="#ArialMT-37"/>
     <use x="55.615234" xlink:href="#ArialMT-33"/>
    </g>
   </g>
   <g id="text_5">
    <!-- DEG in -->
    <g transform="translate(32.80125 36.069268)scale(0.06 -0.06)">
     <defs>
      <path d="M 494 0 
L 494 4581 
L 2072 4581 
Q 2606 4581 2888 4516 
Q 3281 4425 3559 4188 
Q 3922 3881 4101 3404 
Q 4281 2928 4281 2316 
Q 4281 1794 4159 1391 
Q 4038 988 3847 723 
Q 3656 459 3429 307 
Q 3203 156 2883 78 
Q 2563 0 2147 0 
L 494 0 
z
M 1100 541 
L 2078 541 
Q 2531 541 2789 625 
Q 3047 709 3200 863 
Q 3416 1078 3536 1442 
Q 3656 1806 3656 2325 
Q 3656 3044 3420 3430 
Q 3184 3816 2847 3947 
Q 2603 4041 2063 4041 
L 1100 4041 
L 1100 541 
z
" id="ArialMT-44" transform="scale(0.015625)"/>
      <path d="M 506 0 
L 506 4581 
L 3819 4581 
L 3819 4041 
L 1113 4041 
L 1113 2638 
L 3647 2638 
L 3647 2100 
L 1113 2100 
L 1113 541 
L 3925 541 
L 3925 0 
L 506 0 
z
" id="ArialMT-45" transform="scale(0.015625)"/>
      <path d="M 2638 1797 
L 2638 2334 
L 4578 2338 
L 4578 638 
Q 4131 281 3656 101 
Q 3181 -78 2681 -78 
Q 2006 -78 1454 211 
Q 903 500 622 1047 
Q 341 1594 341 2269 
Q 341 2938 620 3517 
Q 900 4097 1425 4378 
Q 1950 4659 2634 4659 
Q 3131 4659 3532 4498 
Q 3934 4338 4162 4050 
Q 4391 3763 4509 3300 
L 3963 3150 
Q 3859 3500 3706 3700 
Q 3553 3900 3268 4020 
Q 2984 4141 2638 4141 
Q 2222 4141 1919 4014 
Q 1616 3888 1430 3681 
Q 1244 3475 1141 3228 
Q 966 2803 966 2306 
Q 966 1694 1177 1281 
Q 1388 869 1791 669 
Q 2194 469 2647 469 
Q 3041 469 3416 620 
Q 3791 772 3984 944 
L 3984 1797 
L 2638 1797 
z
" id="ArialMT-47" transform="scale(0.015625)"/>
      <path id="ArialMT-20" transform="scale(0.015625)"/>
      <path d="M 425 3934 
L 425 4581 
L 988 4581 
L 988 3934 
L 425 3934 
z
M 425 0 
L 425 3319 
L 988 3319 
L 988 0 
L 425 0 
z
" id="ArialMT-69" transform="scale(0.015625)"/>
      <path d="M 422 0 
L 422 3319 
L 928 3319 
L 928 2847 
Q 1294 3394 1984 3394 
Q 2284 3394 2536 3286 
Q 2788 3178 2913 3003 
Q 3038 2828 3088 2588 
Q 3119 2431 3119 2041 
L 3119 0 
L 2556 0 
L 2556 2019 
Q 2556 2363 2490 2533 
Q 2425 2703 2258 2804 
Q 2091 2906 1866 2906 
Q 1506 2906 1245 2678 
Q 984 2450 984 1813 
L 984 0 
L 422 0 
z
" id="ArialMT-6e" transform="scale(0.015625)"/>
     </defs>
     <use xlink:href="#ArialMT-44"/>
     <use x="72.216797" xlink:href="#ArialMT-45"/>
     <use x="138.916016" xlink:href="#ArialMT-47"/>
     <use x="216.699219" xlink:href="#ArialMT-20"/>
     <use x="244.482422" xlink:href="#ArialMT-69"/>
     <use x="266.699219" xlink:href="#ArialMT-6e"/>
    </g>
    <!-- $\itCrx^{K88N}$ mutants -->
    <g transform="translate(7.2 42.526768)scale(0.06 -0.06)">
     <defs>
      <path d="M 4447 4306 
L 4319 3641 
Q 4019 3944 3683 4091 
Q 3347 4238 2956 4238 
Q 2422 4238 2017 3981 
Q 1613 3725 1319 3200 
Q 1131 2863 1032 2486 
Q 934 2109 934 1728 
Q 934 1091 1264 756 
Q 1594 422 2222 422 
Q 2656 422 3056 561 
Q 3456 700 3834 978 
L 3688 231 
Q 3316 72 2936 -9 
Q 2556 -91 2175 -91 
Q 1278 -91 773 396 
Q 269 884 269 1753 
Q 269 2309 461 2846 
Q 653 3384 1013 3828 
Q 1394 4300 1883 4525 
Q 2372 4750 3022 4750 
Q 3422 4750 3780 4639 
Q 4138 4528 4447 4306 
z
" id="DejaVuSans-Oblique-43" transform="scale(0.015625)"/>
      <path d="M 2853 2969 
Q 2766 3016 2653 3041 
Q 2541 3066 2413 3066 
Q 1953 3066 1609 2717 
Q 1266 2369 1153 1784 
L 800 0 
L 225 0 
L 909 3500 
L 1484 3500 
L 1375 2956 
Q 1603 3259 1920 3421 
Q 2238 3584 2597 3584 
Q 2691 3584 2781 3573 
Q 2872 3563 2963 3538 
L 2853 2969 
z
" id="DejaVuSans-Oblique-72" transform="scale(0.015625)"/>
      <path d="M 3841 3500 
L 2234 1784 
L 3219 0 
L 2559 0 
L 1819 1388 
L 531 0 
L -166 0 
L 1556 1844 
L 641 3500 
L 1300 3500 
L 1972 2234 
L 3144 3500 
L 3841 3500 
z
" id="DejaVuSans-Oblique-78" transform="scale(0.015625)"/>
      <path d="M 1081 4666 
L 1716 4666 
L 1331 2700 
L 3781 4666 
L 4622 4666 
L 1850 2438 
L 3878 0 
L 3109 0 
L 1247 2272 
L 806 0 
L 172 0 
L 1081 4666 
z
" id="DejaVuSans-Oblique-4b" transform="scale(0.015625)"/>
      <path d="M 2034 2216 
Q 1584 2216 1326 1975 
Q 1069 1734 1069 1313 
Q 1069 891 1326 650 
Q 1584 409 2034 409 
Q 2484 409 2743 651 
Q 3003 894 3003 1313 
Q 3003 1734 2745 1975 
Q 2488 2216 2034 2216 
z
M 1403 2484 
Q 997 2584 770 2862 
Q 544 3141 544 3541 
Q 544 4100 942 4425 
Q 1341 4750 2034 4750 
Q 2731 4750 3128 4425 
Q 3525 4100 3525 3541 
Q 3525 3141 3298 2862 
Q 3072 2584 2669 2484 
Q 3125 2378 3379 2068 
Q 3634 1759 3634 1313 
Q 3634 634 3220 271 
Q 2806 -91 2034 -91 
Q 1263 -91 848 271 
Q 434 634 434 1313 
Q 434 1759 690 2068 
Q 947 2378 1403 2484 
z
M 1172 3481 
Q 1172 3119 1398 2916 
Q 1625 2713 2034 2713 
Q 2441 2713 2670 2916 
Q 2900 3119 2900 3481 
Q 2900 3844 2670 4047 
Q 2441 4250 2034 4250 
Q 1625 4250 1398 4047 
Q 1172 3844 1172 3481 
z
" id="DejaVuSans-38" transform="scale(0.015625)"/>
      <path d="M 1081 4666 
L 1931 4666 
L 3219 666 
L 4000 4666 
L 4616 4666 
L 3706 0 
L 2853 0 
L 1569 4025 
L 788 0 
L 172 0 
L 1081 4666 
z
" id="DejaVuSans-Oblique-4e" transform="scale(0.015625)"/>
      <path d="M 422 0 
L 422 3319 
L 925 3319 
L 925 2853 
Q 1081 3097 1340 3245 
Q 1600 3394 1931 3394 
Q 2300 3394 2536 3241 
Q 2772 3088 2869 2813 
Q 3263 3394 3894 3394 
Q 4388 3394 4653 3120 
Q 4919 2847 4919 2278 
L 4919 0 
L 4359 0 
L 4359 2091 
Q 4359 2428 4304 2576 
Q 4250 2725 4106 2815 
Q 3963 2906 3769 2906 
Q 3419 2906 3187 2673 
Q 2956 2441 2956 1928 
L 2956 0 
L 2394 0 
L 2394 2156 
Q 2394 2531 2256 2718 
Q 2119 2906 1806 2906 
Q 1569 2906 1367 2781 
Q 1166 2656 1075 2415 
Q 984 2175 984 1722 
L 984 0 
L 422 0 
z
" id="ArialMT-6d" transform="scale(0.015625)"/>
      <path d="M 2597 0 
L 2597 488 
Q 2209 -75 1544 -75 
Q 1250 -75 995 37 
Q 741 150 617 320 
Q 494 491 444 738 
Q 409 903 409 1263 
L 409 3319 
L 972 3319 
L 972 1478 
Q 972 1038 1006 884 
Q 1059 663 1231 536 
Q 1403 409 1656 409 
Q 1909 409 2131 539 
Q 2353 669 2445 892 
Q 2538 1116 2538 1541 
L 2538 3319 
L 3100 3319 
L 3100 0 
L 2597 0 
z
" id="ArialMT-75" transform="scale(0.015625)"/>
      <path d="M 1650 503 
L 1731 6 
Q 1494 -44 1306 -44 
Q 1000 -44 831 53 
Q 663 150 594 308 
Q 525 466 525 972 
L 525 2881 
L 113 2881 
L 113 3319 
L 525 3319 
L 525 4141 
L 1084 4478 
L 1084 3319 
L 1650 3319 
L 1650 2881 
L 1084 2881 
L 1084 941 
Q 1084 700 1114 631 
Q 1144 563 1211 522 
Q 1278 481 1403 481 
Q 1497 481 1650 503 
z
" id="ArialMT-74" transform="scale(0.015625)"/>
      <path d="M 2588 409 
Q 2275 144 1986 34 
Q 1697 -75 1366 -75 
Q 819 -75 525 192 
Q 231 459 231 875 
Q 231 1119 342 1320 
Q 453 1522 633 1644 
Q 813 1766 1038 1828 
Q 1203 1872 1538 1913 
Q 2219 1994 2541 2106 
Q 2544 2222 2544 2253 
Q 2544 2597 2384 2738 
Q 2169 2928 1744 2928 
Q 1347 2928 1158 2789 
Q 969 2650 878 2297 
L 328 2372 
Q 403 2725 575 2942 
Q 747 3159 1072 3276 
Q 1397 3394 1825 3394 
Q 2250 3394 2515 3294 
Q 2781 3194 2906 3042 
Q 3031 2891 3081 2659 
Q 3109 2516 3109 2141 
L 3109 1391 
Q 3109 606 3145 398 
Q 3181 191 3288 0 
L 2700 0 
Q 2613 175 2588 409 
z
M 2541 1666 
Q 2234 1541 1622 1453 
Q 1275 1403 1131 1340 
Q 988 1278 909 1158 
Q 831 1038 831 891 
Q 831 666 1001 516 
Q 1172 366 1500 366 
Q 1825 366 2078 508 
Q 2331 650 2450 897 
Q 2541 1088 2541 1459 
L 2541 1666 
z
" id="ArialMT-61" transform="scale(0.015625)"/>
      <path d="M 197 991 
L 753 1078 
Q 800 744 1014 566 
Q 1228 388 1613 388 
Q 2000 388 2187 545 
Q 2375 703 2375 916 
Q 2375 1106 2209 1216 
Q 2094 1291 1634 1406 
Q 1016 1563 777 1677 
Q 538 1791 414 1992 
Q 291 2194 291 2438 
Q 291 2659 392 2848 
Q 494 3038 669 3163 
Q 800 3259 1026 3326 
Q 1253 3394 1513 3394 
Q 1903 3394 2198 3281 
Q 2494 3169 2634 2976 
Q 2775 2784 2828 2463 
L 2278 2388 
Q 2241 2644 2061 2787 
Q 1881 2931 1553 2931 
Q 1166 2931 1000 2803 
Q 834 2675 834 2503 
Q 834 2394 903 2306 
Q 972 2216 1119 2156 
Q 1203 2125 1616 2013 
Q 2213 1853 2448 1751 
Q 2684 1650 2818 1456 
Q 2953 1263 2953 975 
Q 2953 694 2789 445 
Q 2625 197 2315 61 
Q 2006 -75 1616 -75 
Q 969 -75 630 194 
Q 291 463 197 991 
z
" id="ArialMT-73" transform="scale(0.015625)"/>
     </defs>
     <use transform="translate(0 0.765625)" xlink:href="#DejaVuSans-Oblique-43"/>
     <use transform="translate(69.824219 0.765625)" xlink:href="#DejaVuSans-Oblique-72"/>
     <use transform="translate(110.9375 0.765625)" xlink:href="#DejaVuSans-Oblique-78"/>
     <use transform="translate(174.583333 39.046875)scale(0.7)" xlink:href="#DejaVuSans-Oblique-4b"/>
     <use transform="translate(220.486654 39.046875)scale(0.7)" xlink:href="#DejaVuSans-38"/>
     <use transform="translate(265.022786 39.046875)scale(0.7)" xlink:href="#DejaVuSans-38"/>
     <use transform="translate(309.558919 39.046875)scale(0.7)" xlink:href="#DejaVuSans-Oblique-4e"/>
     <use transform="translate(364.656576 0.765625)" xlink:href="#ArialMT-20"/>
     <use transform="translate(392.439779 0.765625)" xlink:href="#ArialMT-6d"/>
     <use transform="translate(475.74056 0.765625)" xlink:href="#ArialMT-75"/>
     <use transform="translate(531.355794 0.765625)" xlink:href="#ArialMT-74"/>
     <use transform="translate(559.138997 0.765625)" xlink:href="#ArialMT-61"/>
     <use transform="translate(614.754232 0.765625)" xlink:href="#ArialMT-6e"/>
     <use transform="translate(670.369466 0.765625)" xlink:href="#ArialMT-74"/>
     <use transform="translate(698.152669 0.765625)" xlink:href="#ArialMT-73"/>
    </g>
   </g>
   <g id="text_6">
    <!-- DEG in -->
    <g transform="translate(75.661182 34.191535)scale(0.06 -0.06)">
     <use xlink:href="#ArialMT-44"/>
     <use x="72.216797" xlink:href="#ArialMT-45"/>
     <use x="138.916016" xlink:href="#ArialMT-47"/>
     <use x="216.699219" xlink:href="#ArialMT-20"/>
     <use x="244.482422" xlink:href="#ArialMT-69"/>
     <use x="266.699219" xlink:href="#ArialMT-6e"/>
    </g>
    <!-- $\itCrx^{E80A}$ mutants -->
    <g transform="translate(75.661182 40.649035)scale(0.06 -0.06)">
     <defs>
      <path d="M 1081 4666 
L 4031 4666 
L 3928 4134 
L 1606 4134 
L 1338 2753 
L 3566 2753 
L 3463 2222 
L 1234 2222 
L 909 531 
L 3284 531 
L 3181 0 
L 172 0 
L 1081 4666 
z
" id="DejaVuSans-Oblique-45" transform="scale(0.015625)"/>
      <path d="M 2034 4250 
Q 1547 4250 1301 3770 
Q 1056 3291 1056 2328 
Q 1056 1369 1301 889 
Q 1547 409 2034 409 
Q 2525 409 2770 889 
Q 3016 1369 3016 2328 
Q 3016 3291 2770 3770 
Q 2525 4250 2034 4250 
z
M 2034 4750 
Q 2819 4750 3233 4129 
Q 3647 3509 3647 2328 
Q 3647 1150 3233 529 
Q 2819 -91 2034 -91 
Q 1250 -91 836 529 
Q 422 1150 422 2328 
Q 422 3509 836 4129 
Q 1250 4750 2034 4750 
z
" id="DejaVuSans-30" transform="scale(0.015625)"/>
      <path d="M 2356 4666 
L 3072 4666 
L 3938 0 
L 3278 0 
L 3084 1197 
L 984 1197 
L 325 0 
L -341 0 
L 2356 4666 
z
M 2584 4044 
L 1275 1722 
L 2988 1722 
L 2584 4044 
z
" id="DejaVuSans-Oblique-41" transform="scale(0.015625)"/>
     </defs>
     <use transform="translate(0 0.765625)" xlink:href="#DejaVuSans-Oblique-43"/>
     <use transform="translate(69.824219 0.765625)" xlink:href="#DejaVuSans-Oblique-72"/>
     <use transform="translate(110.9375 0.765625)" xlink:href="#DejaVuSans-Oblique-78"/>
     <use transform="translate(174.583333 39.046875)scale(0.7)" xlink:href="#DejaVuSans-Oblique-45"/>
     <use transform="translate(218.811849 39.046875)scale(0.7)" xlink:href="#DejaVuSans-38"/>
     <use transform="translate(263.347982 39.046875)scale(0.7)" xlink:href="#DejaVuSans-30"/>
     <use transform="translate(307.884115 39.046875)scale(0.7)" xlink:href="#DejaVuSans-Oblique-41"/>
     <use transform="translate(358.504232 0.765625)" xlink:href="#ArialMT-20"/>
     <use transform="translate(386.287435 0.765625)" xlink:href="#ArialMT-6d"/>
     <use transform="translate(469.588216 0.765625)" xlink:href="#ArialMT-75"/>
     <use transform="translate(525.203451 0.765625)" xlink:href="#ArialMT-74"/>
     <use transform="translate(552.986654 0.765625)" xlink:href="#ArialMT-61"/>
     <use transform="translate(608.601888 0.765625)" xlink:href="#ArialMT-6e"/>
     <use transform="translate(664.217122 0.765625)" xlink:href="#ArialMT-74"/>
     <use transform="translate(692.000326 0.765625)" xlink:href="#ArialMT-73"/>
    </g>
   </g>
   <g id="text_7">
    <!-- All genes in -->
    <g transform="translate(51.824454 124.003147)scale(0.06 -0.06)">
     <defs>
      <path d="M -9 0 
L 1750 4581 
L 2403 4581 
L 4278 0 
L 3588 0 
L 3053 1388 
L 1138 1388 
L 634 0 
L -9 0 
z
M 1313 1881 
L 2866 1881 
L 2388 3150 
Q 2169 3728 2063 4100 
Q 1975 3659 1816 3225 
L 1313 1881 
z
" id="ArialMT-41" transform="scale(0.015625)"/>
      <path d="M 409 0 
L 409 4581 
L 972 4581 
L 972 0 
L 409 0 
z
" id="ArialMT-6c" transform="scale(0.015625)"/>
      <path d="M 319 -275 
L 866 -356 
Q 900 -609 1056 -725 
Q 1266 -881 1628 -881 
Q 2019 -881 2231 -725 
Q 2444 -569 2519 -288 
Q 2563 -116 2559 434 
Q 2191 0 1641 0 
Q 956 0 581 494 
Q 206 988 206 1678 
Q 206 2153 378 2554 
Q 550 2956 876 3175 
Q 1203 3394 1644 3394 
Q 2231 3394 2613 2919 
L 2613 3319 
L 3131 3319 
L 3131 450 
Q 3131 -325 2973 -648 
Q 2816 -972 2473 -1159 
Q 2131 -1347 1631 -1347 
Q 1038 -1347 672 -1080 
Q 306 -813 319 -275 
z
M 784 1719 
Q 784 1066 1043 766 
Q 1303 466 1694 466 
Q 2081 466 2343 764 
Q 2606 1063 2606 1700 
Q 2606 2309 2336 2618 
Q 2066 2928 1684 2928 
Q 1309 2928 1046 2623 
Q 784 2319 784 1719 
z
" id="ArialMT-67" transform="scale(0.015625)"/>
      <path d="M 2694 1069 
L 3275 997 
Q 3138 488 2766 206 
Q 2394 -75 1816 -75 
Q 1088 -75 661 373 
Q 234 822 234 1631 
Q 234 2469 665 2931 
Q 1097 3394 1784 3394 
Q 2450 3394 2872 2941 
Q 3294 2488 3294 1666 
Q 3294 1616 3291 1516 
L 816 1516 
Q 847 969 1125 678 
Q 1403 388 1819 388 
Q 2128 388 2347 550 
Q 2566 713 2694 1069 
z
M 847 1978 
L 2700 1978 
Q 2663 2397 2488 2606 
Q 2219 2931 1791 2931 
Q 1403 2931 1139 2672 
Q 875 2413 847 1978 
z
" id="ArialMT-65" transform="scale(0.015625)"/>
     </defs>
     <use xlink:href="#ArialMT-41"/>
     <use x="66.699219" xlink:href="#ArialMT-6c"/>
     <use x="88.916016" xlink:href="#ArialMT-6c"/>
     <use x="111.132812" xlink:href="#ArialMT-20"/>
     <use x="138.916016" xlink:href="#ArialMT-67"/>
     <use x="194.53125" xlink:href="#ArialMT-65"/>
     <use x="250.146484" xlink:href="#ArialMT-6e"/>
     <use x="305.761719" xlink:href="#ArialMT-65"/>
     <use x="361.376953" xlink:href="#ArialMT-73"/>
     <use x="411.376953" xlink:href="#ArialMT-20"/>
     <use x="439.160156" xlink:href="#ArialMT-69"/>
     <use x="461.376953" xlink:href="#ArialMT-6e"/>
    </g>
    <!-- independent category -->
    <g transform="translate(38.480079 130.419584)scale(0.06 -0.06)">
     <defs>
      <path d="M 2575 0 
L 2575 419 
Q 2259 -75 1647 -75 
Q 1250 -75 917 144 
Q 584 363 401 755 
Q 219 1147 219 1656 
Q 219 2153 384 2558 
Q 550 2963 881 3178 
Q 1213 3394 1622 3394 
Q 1922 3394 2156 3267 
Q 2391 3141 2538 2938 
L 2538 4581 
L 3097 4581 
L 3097 0 
L 2575 0 
z
M 797 1656 
Q 797 1019 1065 703 
Q 1334 388 1700 388 
Q 2069 388 2326 689 
Q 2584 991 2584 1609 
Q 2584 2291 2321 2609 
Q 2059 2928 1675 2928 
Q 1300 2928 1048 2622 
Q 797 2316 797 1656 
z
" id="ArialMT-64" transform="scale(0.015625)"/>
      <path d="M 422 -1272 
L 422 3319 
L 934 3319 
L 934 2888 
Q 1116 3141 1344 3267 
Q 1572 3394 1897 3394 
Q 2322 3394 2647 3175 
Q 2972 2956 3137 2557 
Q 3303 2159 3303 1684 
Q 3303 1175 3120 767 
Q 2938 359 2589 142 
Q 2241 -75 1856 -75 
Q 1575 -75 1351 44 
Q 1128 163 984 344 
L 984 -1272 
L 422 -1272 
z
M 931 1641 
Q 931 1000 1190 694 
Q 1450 388 1819 388 
Q 2194 388 2461 705 
Q 2728 1022 2728 1688 
Q 2728 2322 2467 2637 
Q 2206 2953 1844 2953 
Q 1484 2953 1207 2617 
Q 931 2281 931 1641 
z
" id="ArialMT-70" transform="scale(0.015625)"/>
      <path d="M 2588 1216 
L 3141 1144 
Q 3050 572 2676 248 
Q 2303 -75 1759 -75 
Q 1078 -75 664 370 
Q 250 816 250 1647 
Q 250 2184 428 2587 
Q 606 2991 970 3192 
Q 1334 3394 1763 3394 
Q 2303 3394 2647 3120 
Q 2991 2847 3088 2344 
L 2541 2259 
Q 2463 2594 2264 2762 
Q 2066 2931 1784 2931 
Q 1359 2931 1093 2626 
Q 828 2322 828 1663 
Q 828 994 1084 691 
Q 1341 388 1753 388 
Q 2084 388 2306 591 
Q 2528 794 2588 1216 
z
" id="ArialMT-63" transform="scale(0.015625)"/>
      <path d="M 213 1659 
Q 213 2581 725 3025 
Q 1153 3394 1769 3394 
Q 2453 3394 2887 2945 
Q 3322 2497 3322 1706 
Q 3322 1066 3130 698 
Q 2938 331 2570 128 
Q 2203 -75 1769 -75 
Q 1072 -75 642 372 
Q 213 819 213 1659 
z
M 791 1659 
Q 791 1022 1069 705 
Q 1347 388 1769 388 
Q 2188 388 2466 706 
Q 2744 1025 2744 1678 
Q 2744 2294 2464 2611 
Q 2184 2928 1769 2928 
Q 1347 2928 1069 2612 
Q 791 2297 791 1659 
z
" id="ArialMT-6f" transform="scale(0.015625)"/>
      <path d="M 416 0 
L 416 3319 
L 922 3319 
L 922 2816 
Q 1116 3169 1280 3281 
Q 1444 3394 1641 3394 
Q 1925 3394 2219 3213 
L 2025 2691 
Q 1819 2813 1613 2813 
Q 1428 2813 1281 2702 
Q 1134 2591 1072 2394 
Q 978 2094 978 1738 
L 978 0 
L 416 0 
z
" id="ArialMT-72" transform="scale(0.015625)"/>
      <path d="M 397 -1278 
L 334 -750 
Q 519 -800 656 -800 
Q 844 -800 956 -737 
Q 1069 -675 1141 -563 
Q 1194 -478 1313 -144 
Q 1328 -97 1363 -6 
L 103 3319 
L 709 3319 
L 1400 1397 
Q 1534 1031 1641 628 
Q 1738 1016 1872 1384 
L 2581 3319 
L 3144 3319 
L 1881 -56 
Q 1678 -603 1566 -809 
Q 1416 -1088 1222 -1217 
Q 1028 -1347 759 -1347 
Q 597 -1347 397 -1278 
z
" id="ArialMT-79" transform="scale(0.015625)"/>
     </defs>
     <use xlink:href="#ArialMT-69"/>
     <use x="22.216797" xlink:href="#ArialMT-6e"/>
     <use x="77.832031" xlink:href="#ArialMT-64"/>
     <use x="133.447266" xlink:href="#ArialMT-65"/>
     <use x="189.0625" xlink:href="#ArialMT-70"/>
     <use x="244.677734" xlink:href="#ArialMT-65"/>
     <use x="300.292969" xlink:href="#ArialMT-6e"/>
     <use x="355.908203" xlink:href="#ArialMT-64"/>
     <use x="411.523438" xlink:href="#ArialMT-65"/>
     <use x="467.138672" xlink:href="#ArialMT-6e"/>
     <use x="522.753906" xlink:href="#ArialMT-74"/>
     <use x="550.537109" xlink:href="#ArialMT-20"/>
     <use x="578.320312" xlink:href="#ArialMT-63"/>
     <use x="628.320312" xlink:href="#ArialMT-61"/>
     <use x="683.935547" xlink:href="#ArialMT-74"/>
     <use x="711.71875" xlink:href="#ArialMT-65"/>
     <use x="767.333984" xlink:href="#ArialMT-67"/>
     <use x="822.949219" xlink:href="#ArialMT-6f"/>
     <use x="878.564453" xlink:href="#ArialMT-72"/>
     <use x="911.865234" xlink:href="#ArialMT-79"/>
    </g>
   </g>
   <g id="text_8">
    <!-- a -->
    <g transform="translate(10.169487 12.210469)scale(0.07 -0.07)">
     <defs>
      <path d="M 1116 2306 
L 319 2450 
Q 453 2931 781 3162 
Q 1109 3394 1756 3394 
Q 2344 3394 2631 3255 
Q 2919 3116 3036 2902 
Q 3153 2688 3153 2116 
L 3144 1091 
Q 3144 653 3186 445 
Q 3228 238 3344 0 
L 2475 0 
Q 2441 88 2391 259 
Q 2369 338 2359 363 
Q 2134 144 1878 34 
Q 1622 -75 1331 -75 
Q 819 -75 523 203 
Q 228 481 228 906 
Q 228 1188 362 1408 
Q 497 1628 739 1745 
Q 981 1863 1438 1950 
Q 2053 2066 2291 2166 
L 2291 2253 
Q 2291 2506 2166 2614 
Q 2041 2722 1694 2722 
Q 1459 2722 1328 2630 
Q 1197 2538 1116 2306 
z
M 2291 1594 
Q 2122 1538 1756 1459 
Q 1391 1381 1278 1306 
Q 1106 1184 1106 997 
Q 1106 813 1243 678 
Q 1381 544 1594 544 
Q 1831 544 2047 700 
Q 2206 819 2256 991 
Q 2291 1103 2291 1419 
L 2291 1594 
z
" id="Arial-BoldMT-61" transform="scale(0.015625)"/>
     </defs>
     <use xlink:href="#Arial-BoldMT-61"/>
    </g>
   </g>
  </g>
 </g>
 <defs>
  <clipPath id="p4380343551">
   <rect height="88.785623" width="88.785623" x="22.940705" y="33.835687"/>
  </clipPath>
 </defs>
</svg>
