<?xml version="1.0" encoding="utf-8" standalone="no"?>
<!DOCTYPE svg PUBLIC "-//W3C//DTD SVG 1.1//EN"
  "http://www.w3.org/Graphics/SVG/1.1/DTD/svg11.dtd">
<svg height="30.708pt" version="1.1" viewBox="0 0 59.04 30.708" width="59.04pt" xmlns="http://www.w3.org/2000/svg" xmlns:xlink="http://www.w3.org/1999/xlink">
 <metadata>
  <rdf:RDF xmlns:cc="http://creativecommons.org/ns#" xmlns:dc="http://purl.org/dc/elements/1.1/" xmlns:rdf="http://www.w3.org/1999/02/22-rdf-syntax-ns#">
   <cc:Work>
    <dc:type rdf:resource="http://purl.org/dc/dcmitype/StillImage"/>
    <dc:date>2022-02-17T17:23:16.274625</dc:date>
    <dc:format>image/svg+xml</dc:format>
    <dc:creator>
     <cc:Agent>
      <dc:title>Matplotlib v3.4.2, https://matplotlib.org/</dc:title>
     </cc:Agent>
    </dc:creator>
   </cc:Work>
  </rdf:RDF>
 </metadata>
 <defs>
  <style type="text/css">*{stroke-linecap:butt;stroke-linejoin:round;}</style>
 </defs>
 <g id="figure_1">
  <g id="patch_1">
   <path d="M 0 30.708 
L 59.04 30.708 
L 59.04 0 
L 0 0 
z
" style="fill:none;"/>
  </g>
  <g id="axes_1">
   <g id="line2d_1">
    <path clip-path="url(#p6f08ec8845)" d="M 7.2 23.508 
L 51.84 23.508 
" style="fill:none;stroke:#000000;stroke-linecap:square;stroke-width:0.5;"/>
   </g>
   <g id="patch_2">
    <path clip-path="url(#p6f08ec8845)" d="M 9.478143 23.508 
L 9.478143 12.217116 
L 7.2 12.217116 
L 7.2 9.918 
L 13.301871 9.918 
L 13.301871 12.217116 
L 11.028756 12.217116 
L 11.028756 23.508 
L 9.478143 23.508 
z
" style="fill:#1a1a1a;"/>
   </g>
   <g id="patch_3">
    <path clip-path="url(#p6f08ec8845)" d="M 19.724892 23.508 
L 18.389569 23.508 
L 17.858625 20.419768 
L 15.426903 20.419768 
L 14.925161 23.508 
L 13.623022 23.508 
L 15.99103 9.918 
L 17.290515 9.918 
L 19.724892 23.508 
z
M 17.464399 18.129552 
L 16.626836 13.08633 
L 15.8052 18.129552 
L 17.464399 18.129552 
z
" style="fill:#0e927b;"/>
   </g>
   <g id="patch_4">
    <path clip-path="url(#p6f08ec8845)" d="M 26.147914 23.508 
L 24.81259 23.508 
L 24.281647 20.419768 
L 21.849924 20.419768 
L 21.348183 23.508 
L 20.046043 23.508 
L 22.414052 9.918 
L 23.713537 9.918 
L 26.147914 23.508 
z
M 23.887421 18.129552 
L 23.049857 13.08633 
L 22.228222 18.129552 
L 23.887421 18.129552 
z
" style="fill:#0e927b;"/>
   </g>
   <g id="patch_5">
    <path clip-path="url(#p6f08ec8845)" d="M 28.747208 23.508 
L 28.747208 12.217116 
L 26.469065 12.217116 
L 26.469065 9.918 
L 32.570935 9.918 
L 32.570935 12.217116 
L 30.297821 12.217116 
L 30.297821 23.508 
L 28.747208 23.508 
z
" style="fill:#1a1a1a;"/>
   </g>
   <g id="patch_6">
    <path clip-path="url(#p6f08ec8845)" d="M 37.622527 18.452991 
L 38.993957 19.267759 
Q 38.679002 21.419438 37.945126 22.463719 
Q 37.21125 23.508 36.084446 23.508 
Q 34.688553 23.508 33.789555 21.720673 
Q 32.892086 19.930476 32.892086 16.829191 
Q 32.892086 13.547164 33.794142 11.734016 
Q 34.697726 9.918 36.170064 9.918 
Q 37.455876 9.918 38.258552 11.340977 
Q 38.735571 12.184434 38.974081 13.762332 
L 37.575131 14.390622 
Q 37.44976 13.369292 37.055302 12.778298 
Q 36.662373 12.184434 36.098206 12.184434 
Q 35.319992 12.184434 34.833799 13.234453 
Q 34.349135 14.281604 34.349135 16.631236 
Q 34.349135 19.124314 34.826155 20.18294 
Q 35.304703 21.238697 36.069156 21.238697 
Q 36.633323 21.238697 37.038484 20.567373 
Q 37.445173 19.896049 37.622527 18.452991 
z
" style="fill:#59a9d8;"/>
   </g>
   <g id="patch_7">
    <path clip-path="url(#p6f08ec8845)" d="M 41.593251 23.508 
L 41.593251 21.185526 
L 39.315108 21.185526 
L 39.315108 20.71261 
L 45.416978 20.71261 
L 45.416978 21.185526 
L 43.143864 21.185526 
L 43.143864 23.508 
L 41.593251 23.508 
z
" style="fill:#1a1a1a;"/>
   </g>
   <g id="patch_8">
    <path clip-path="url(#p6f08ec8845)" d="M 44.045548 19.151042 
L 45.416978 19.402736 
Q 45.102023 20.067422 44.368148 20.390016 
Q 43.634272 20.71261 42.507467 20.71261 
Q 41.111574 20.71261 40.212577 20.160478 
Q 39.315108 19.607459 39.315108 18.649426 
Q 39.315108 17.635558 40.217163 17.07545 
Q 41.120748 16.514455 42.593086 16.514455 
Q 43.878897 16.514455 44.681574 16.954034 
Q 45.158593 17.214591 45.397103 17.702027 
L 43.998152 17.896115 
Q 43.872782 17.580611 43.478323 17.398044 
Q 43.085394 17.214591 42.521227 17.214591 
Q 41.743013 17.214591 41.256821 17.538957 
Q 40.772157 17.862438 40.772157 18.588274 
Q 40.772157 19.358424 41.249176 19.685449 
Q 41.727724 20.011588 42.492178 20.011588 
Q 43.056345 20.011588 43.461506 19.804206 
Q 43.868195 19.596824 44.045548 19.151042 
z
" style="fill:#59a9d8;"/>
   </g>
   <g id="patch_9">
    <path clip-path="url(#p6f08ec8845)" d="M 49.00053 23.29718 
L 49.00053 23.204812 
L 51.84 23.204812 
L 51.84 23.42317 
Q 51.425614 23.456791 50.639562 23.482395 
Q 49.854934 23.508 49.048946 23.508 
Q 48.026509 23.508 47.264665 23.471986 
Q 46.504245 23.435852 46.121187 23.36873 
Q 45.738129 23.301607 45.738129 23.222759 
Q 45.738129 23.137091 46.165332 23.070567 
Q 46.592534 23.004042 47.41561 22.968507 
Q 48.043597 22.941227 48.977746 22.941227 
Q 50.192424 22.941227 50.875947 22.984061 
Q 51.559471 23.026775 51.75456 23.102273 
L 50.447321 23.122853 
Q 50.309192 23.082531 49.927558 23.0592 
Q 49.547349 23.035749 48.977746 23.035749 
Q 48.114797 23.035749 47.605003 23.081814 
Q 47.095208 23.127758 47.095208 23.218212 
Q 47.095208 23.315845 47.610699 23.364662 
Q 48.127613 23.413358 48.96493 23.413358 
Q 49.379316 23.413358 49.795126 23.399718 
Q 50.210936 23.386079 50.508553 23.366696 
L 50.508553 23.29718 
L 49.00053 23.29718 
z
" style="fill:#dc9514;"/>
   </g>
   <g id="patch_10">
    <path clip-path="url(#p6f08ec8845)" d="M 48.016273 22.941227 
L 48.016273 21.717205 
L 45.738129 21.717205 
L 45.738129 21.467962 
L 51.84 21.467962 
L 51.84 21.717205 
L 49.566886 21.717205 
L 49.566886 22.941227 
L 48.016273 22.941227 
z
" style="fill:#1a1a1a;"/>
   </g>
   <g id="patch_11">
    <path clip-path="url(#p6f08ec8845)" d="M 50.46857 20.887762 
L 51.84 20.981279 
Q 51.525045 21.228243 50.791169 21.348102 
Q 50.057294 21.467962 48.930489 21.467962 
Q 47.534596 21.467962 46.635598 21.262818 
Q 45.738129 21.057344 45.738129 20.701387 
Q 45.738129 20.324684 46.640185 20.116576 
Q 47.543769 19.908139 49.016108 19.908139 
Q 50.301919 19.908139 51.104595 20.071464 
Q 51.581615 20.168274 51.820124 20.349381 
L 50.421174 20.421494 
Q 50.295803 20.304269 49.901345 20.236436 
Q 49.508416 20.168274 48.944249 20.168274 
Q 48.166035 20.168274 47.679842 20.288792 
Q 47.195179 20.408981 47.195179 20.678666 
Q 47.195179 20.964815 47.672198 21.086321 
Q 48.150746 21.207498 48.9152 21.207498 
Q 49.479367 21.207498 49.884527 21.130445 
Q 50.291217 21.053392 50.46857 20.887762 
z
" style="fill:#59a9d8;"/>
   </g>
  </g>
 </g>
 <defs>
  <clipPath id="p6f08ec8845">
   <rect height="16.308" width="44.64" x="7.2" y="7.2"/>
  </clipPath>
 </defs>
</svg>
