<?xml version="1.0" encoding="utf-8" standalone="no"?>
<!DOCTYPE svg PUBLIC "-//W3C//DTD SVG 1.1//EN"
  "http://www.w3.org/Graphics/SVG/1.1/DTD/svg11.dtd">
<svg height="30.708pt" version="1.1" viewBox="0 0 59.04 30.708" width="59.04pt" xmlns="http://www.w3.org/2000/svg" xmlns:xlink="http://www.w3.org/1999/xlink">
 <metadata>
  <rdf:RDF xmlns:cc="http://creativecommons.org/ns#" xmlns:dc="http://purl.org/dc/elements/1.1/" xmlns:rdf="http://www.w3.org/1999/02/22-rdf-syntax-ns#">
   <cc:Work>
    <dc:type rdf:resource="http://purl.org/dc/dcmitype/StillImage"/>
    <dc:date>2022-02-17T17:23:16.579465</dc:date>
    <dc:format>image/svg+xml</dc:format>
    <dc:creator>
     <cc:Agent>
      <dc:title>Matplotlib v3.4.2, https://matplotlib.org/</dc:title>
     </cc:Agent>
    </dc:creator>
   </cc:Work>
  </rdf:RDF>
 </metadata>
 <defs>
  <style type="text/css">*{stroke-linecap:butt;stroke-linejoin:round;}</style>
 </defs>
 <g id="figure_1">
  <g id="patch_1">
   <path d="M 0 30.708 
L 59.04 30.708 
L 59.04 0 
L 0 0 
z
" style="fill:none;"/>
  </g>
  <g id="axes_1">
   <g id="line2d_1">
    <path clip-path="url(#p23e579eae9)" d="M 7.2 23.508 
L 51.84 23.508 
" style="fill:none;stroke:#000000;stroke-linecap:square;stroke-width:0.5;"/>
   </g>
   <g id="patch_2">
    <path clip-path="url(#p23e579eae9)" d="M 9.478143 23.508 
L 9.478143 12.217116 
L 7.2 12.217116 
L 7.2 9.918 
L 13.301871 9.918 
L 13.301871 12.217116 
L 11.028756 12.217116 
L 11.028756 23.508 
L 9.478143 23.508 
z
" style="fill:#1a1a1a;"/>
   </g>
   <g id="patch_3">
    <path clip-path="url(#p23e579eae9)" d="M 19.724892 23.508 
L 18.389569 23.508 
L 17.858625 20.419768 
L 15.426903 20.419768 
L 14.925161 23.508 
L 13.623022 23.508 
L 15.99103 9.918 
L 17.290515 9.918 
L 19.724892 23.508 
z
M 17.464399 18.129552 
L 16.626836 13.08633 
L 15.8052 18.129552 
L 17.464399 18.129552 
z
" style="fill:#0e927b;"/>
   </g>
   <g id="patch_4">
    <path clip-path="url(#p23e579eae9)" d="M 26.147914 23.508 
L 24.81259 23.508 
L 24.281647 20.419768 
L 21.849924 20.419768 
L 21.348183 23.508 
L 20.046043 23.508 
L 22.414052 9.918 
L 23.713537 9.918 
L 26.147914 23.508 
z
M 23.887421 18.129552 
L 23.049857 13.08633 
L 22.228222 18.129552 
L 23.887421 18.129552 
z
" style="fill:#0e927b;"/>
   </g>
   <g id="patch_5">
    <path clip-path="url(#p23e579eae9)" d="M 28.747208 23.508 
L 28.747208 12.217116 
L 26.469065 12.217116 
L 26.469065 9.918 
L 32.570935 9.918 
L 32.570935 12.217116 
L 30.297821 12.217116 
L 30.297821 23.508 
L 28.747208 23.508 
z
" style="fill:#1a1a1a;"/>
   </g>
   <g id="patch_6">
    <path clip-path="url(#p23e579eae9)" d="M 36.154487 22.475533 
L 36.154487 22.023169 
L 38.993957 22.023169 
L 38.993957 23.092552 
Q 38.579571 23.257208 37.793519 23.382604 
Q 37.008891 23.508 36.202903 23.508 
Q 35.180466 23.508 34.418622 23.331625 
Q 33.658202 23.154664 33.275144 22.825939 
Q 32.892086 22.497213 32.892086 22.111064 
Q 32.892086 21.691514 33.319288 21.365718 
Q 33.746491 21.039923 34.569567 20.865892 
Q 35.197554 20.732292 36.131703 20.732292 
Q 37.346381 20.732292 38.029904 20.942067 
Q 38.713427 21.151256 38.908516 21.520999 
L 37.601278 21.621784 
Q 37.463149 21.424315 37.081515 21.310052 
Q 36.701305 21.195203 36.131703 21.195203 
Q 35.268754 21.195203 34.75896 21.420799 
Q 34.249165 21.645809 34.249165 22.088797 
Q 34.249165 22.566943 34.764656 22.806016 
Q 35.28157 23.044503 36.118886 23.044503 
Q 36.533273 23.044503 36.949083 22.977703 
Q 37.364893 22.910903 37.66251 22.815977 
L 37.66251 22.475533 
L 36.154487 22.475533 
z
" style="fill:#dc9514;"/>
   </g>
   <g id="patch_7">
    <path clip-path="url(#p23e579eae9)" d="M 35.17023 20.732292 
L 35.17023 17.215683 
L 32.892086 17.215683 
L 32.892086 16.49961 
L 38.993957 16.49961 
L 38.993957 17.215683 
L 36.720842 17.215683 
L 36.720842 20.732292 
L 35.17023 20.732292 
z
" style="fill:#1a1a1a;"/>
   </g>
   <g id="patch_8">
    <path clip-path="url(#p23e579eae9)" d="M 45.416978 23.508 
L 44.081655 23.508 
L 43.550711 20.419768 
L 41.118989 20.419768 
L 40.617247 23.508 
L 39.315108 23.508 
L 41.683117 9.918 
L 42.982602 9.918 
L 45.416978 23.508 
z
M 43.156486 18.129552 
L 42.318922 13.08633 
L 41.497287 18.129552 
L 43.156486 18.129552 
z
" style="fill:#0e927b;"/>
   </g>
   <g id="patch_9">
    <path clip-path="url(#p23e579eae9)" d="M 50.46857 23.220047 
L 51.84 23.266459 
Q 51.525045 23.389027 50.791169 23.448514 
Q 50.057294 23.508 48.930489 23.508 
Q 47.534596 23.508 46.635598 23.406187 
Q 45.738129 23.30421 45.738129 23.127549 
Q 45.738129 22.940592 46.640185 22.837308 
Q 47.543769 22.733861 49.016108 22.733861 
Q 50.301919 22.733861 51.104595 22.814919 
Q 51.581615 22.862966 51.820124 22.952849 
L 50.421174 22.988639 
Q 50.295803 22.93046 49.901345 22.896794 
Q 49.508416 22.862966 48.944249 22.862966 
Q 48.166035 22.862966 47.679842 22.922779 
Q 47.195179 22.982429 47.195179 23.116273 
Q 47.195179 23.258288 47.672198 23.318592 
Q 48.150746 23.378732 48.9152 23.378732 
Q 49.479367 23.378732 49.884527 23.34049 
Q 50.291217 23.302249 50.46857 23.220047 
z
" style="fill:#59a9d8;"/>
   </g>
   <g id="patch_10">
    <path clip-path="url(#p23e579eae9)" d="M 49.00053 22.34082 
L 49.00053 22.168614 
L 51.84 22.168614 
L 51.84 22.575708 
Q 51.425614 22.638389 50.639562 22.686125 
Q 49.854934 22.733861 49.048946 22.733861 
Q 48.026509 22.733861 47.264665 22.666718 
Q 46.504245 22.599353 46.121187 22.474213 
Q 45.738129 22.349074 45.738129 22.202074 
Q 45.738129 22.042359 46.165332 21.918335 
Q 46.592534 21.794311 47.41561 21.728061 
Q 48.043597 21.677202 48.977746 21.677202 
Q 50.192424 21.677202 50.875947 21.757059 
Q 51.559471 21.836693 51.75456 21.977447 
L 50.447321 22.015815 
Q 50.309192 21.940642 49.927558 21.897144 
Q 49.547349 21.853423 48.977746 21.853423 
Q 48.114797 21.853423 47.605003 21.939303 
Q 47.095208 22.02496 47.095208 22.193597 
Q 47.095208 22.375618 47.610699 22.466629 
Q 48.127613 22.557416 48.96493 22.557416 
Q 49.379316 22.557416 49.795126 22.531987 
Q 50.210936 22.506557 50.508553 22.470421 
L 50.508553 22.34082 
L 49.00053 22.34082 
z
" style="fill:#dc9514;"/>
   </g>
   <g id="patch_11">
    <path clip-path="url(#p23e579eae9)" d="M 51.84 21.677202 
L 50.504677 21.677202 
L 49.973733 21.426974 
L 47.542011 21.426974 
L 47.040269 21.677202 
L 45.738129 21.677202 
L 48.106138 20.576054 
L 49.405623 20.576054 
L 51.84 21.677202 
z
M 49.579507 21.241406 
L 48.741943 20.832772 
L 47.920308 21.241406 
L 49.579507 21.241406 
z
" style="fill:#0e927b;"/>
   </g>
  </g>
 </g>
 <defs>
  <clipPath id="p23e579eae9">
   <rect height="16.308" width="44.64" x="7.2" y="7.2"/>
  </clipPath>
 </defs>
</svg>
