<?xml version="1.0" encoding="utf-8" standalone="no"?>
<!DOCTYPE svg PUBLIC "-//W3C//DTD SVG 1.1//EN"
  "http://www.w3.org/Graphics/SVG/1.1/DTD/svg11.dtd">
<svg height="30.708pt" version="1.1" viewBox="0 0 59.04 30.708" width="59.04pt" xmlns="http://www.w3.org/2000/svg" xmlns:xlink="http://www.w3.org/1999/xlink">
 <metadata>
  <rdf:RDF xmlns:cc="http://creativecommons.org/ns#" xmlns:dc="http://purl.org/dc/elements/1.1/" xmlns:rdf="http://www.w3.org/1999/02/22-rdf-syntax-ns#">
   <cc:Work>
    <dc:type rdf:resource="http://purl.org/dc/dcmitype/StillImage"/>
    <dc:date>2022-02-17T17:23:15.917687</dc:date>
    <dc:format>image/svg+xml</dc:format>
    <dc:creator>
     <cc:Agent>
      <dc:title>Matplotlib v3.4.2, https://matplotlib.org/</dc:title>
     </cc:Agent>
    </dc:creator>
   </cc:Work>
  </rdf:RDF>
 </metadata>
 <defs>
  <style type="text/css">*{stroke-linecap:butt;stroke-linejoin:round;}</style>
 </defs>
 <g id="figure_1">
  <g id="patch_1">
   <path d="M 0 30.708 
L 59.04 30.708 
L 59.04 0 
L 0 0 
z
" style="fill:none;"/>
  </g>
  <g id="axes_1">
   <g id="line2d_1">
    <path clip-path="url(#p1ee6aa16d9)" d="M 7.2 23.508 
L 51.84 23.508 
" style="fill:none;stroke:#000000;stroke-linecap:square;stroke-width:0.5;"/>
   </g>
   <g id="patch_2">
    <path clip-path="url(#p1ee6aa16d9)" d="M 9.478143 23.508 
L 9.478143 12.217116 
L 7.2 12.217116 
L 7.2 9.918 
L 13.301871 9.918 
L 13.301871 12.217116 
L 11.028756 12.217116 
L 11.028756 23.508 
L 9.478143 23.508 
z
" style="fill:#1a1a1a;"/>
   </g>
   <g id="patch_3">
    <path clip-path="url(#p1ee6aa16d9)" d="M 19.724892 23.508 
L 18.389569 23.508 
L 17.858625 20.419768 
L 15.426903 20.419768 
L 14.925161 23.508 
L 13.623022 23.508 
L 15.99103 9.918 
L 17.290515 9.918 
L 19.724892 23.508 
z
M 17.464399 18.129552 
L 16.626836 13.08633 
L 15.8052 18.129552 
L 17.464399 18.129552 
z
" style="fill:#0e927b;"/>
   </g>
   <g id="patch_4">
    <path clip-path="url(#p1ee6aa16d9)" d="M 26.147914 23.508 
L 24.81259 23.508 
L 24.281647 20.419768 
L 21.849924 20.419768 
L 21.348183 23.508 
L 20.046043 23.508 
L 22.414052 9.918 
L 23.713537 9.918 
L 26.147914 23.508 
z
M 23.887421 18.129552 
L 23.049857 13.08633 
L 22.228222 18.129552 
L 23.887421 18.129552 
z
" style="fill:#0e927b;"/>
   </g>
   <g id="patch_5">
    <path clip-path="url(#p1ee6aa16d9)" d="M 28.747208 23.508 
L 28.747208 12.217116 
L 26.469065 12.217116 
L 26.469065 9.918 
L 32.570935 9.918 
L 32.570935 12.217116 
L 30.297821 12.217116 
L 30.297821 23.508 
L 28.747208 23.508 
z
" style="fill:#1a1a1a;"/>
   </g>
   <g id="patch_6">
    <path clip-path="url(#p1ee6aa16d9)" d="M 37.622527 18.452991 
L 38.993957 19.267759 
Q 38.679002 21.419438 37.945126 22.463719 
Q 37.21125 23.508 36.084446 23.508 
Q 34.688553 23.508 33.789555 21.720673 
Q 32.892086 19.930476 32.892086 16.829191 
Q 32.892086 13.547164 33.794142 11.734016 
Q 34.697726 9.918 36.170064 9.918 
Q 37.455876 9.918 38.258552 11.340977 
Q 38.735571 12.184434 38.974081 13.762332 
L 37.575131 14.390622 
Q 37.44976 13.369292 37.055302 12.778298 
Q 36.662373 12.184434 36.098206 12.184434 
Q 35.319992 12.184434 34.833799 13.234453 
Q 34.349135 14.281604 34.349135 16.631236 
Q 34.349135 19.124314 34.826155 20.18294 
Q 35.304703 21.238697 36.069156 21.238697 
Q 36.633323 21.238697 37.038484 20.567373 
Q 37.445173 19.896049 37.622527 18.452991 
z
" style="fill:#59a9d8;"/>
   </g>
   <g id="patch_7">
    <path clip-path="url(#p1ee6aa16d9)" d="M 41.593251 23.508 
L 41.593251 20.994076 
L 39.315108 20.994076 
L 39.315108 20.482177 
L 45.416978 20.482177 
L 45.416978 20.994076 
L 43.143864 20.994076 
L 43.143864 23.508 
L 41.593251 23.508 
z
" style="fill:#1a1a1a;"/>
   </g>
   <g id="patch_8">
    <path clip-path="url(#p1ee6aa16d9)" d="M 44.045548 19.054588 
L 45.416978 19.284688 
Q 45.102023 19.892345 44.368148 20.187261 
Q 43.634272 20.482177 42.507467 20.482177 
Q 41.111574 20.482177 40.212577 19.977416 
Q 39.315108 19.471846 39.315108 18.59601 
Q 39.315108 17.669131 40.217163 17.157079 
Q 41.120748 16.644217 42.593086 16.644217 
Q 43.878897 16.644217 44.681574 17.04608 
Q 45.158593 17.284282 45.397103 17.729897 
L 43.998152 17.907333 
Q 43.872782 17.618898 43.478323 17.451995 
Q 43.085394 17.284282 42.521227 17.284282 
Q 41.743013 17.284282 41.256821 17.580818 
Q 40.772157 17.876545 40.772157 18.540106 
Q 40.772157 19.244177 41.249176 19.543144 
Q 41.727724 19.841301 42.492178 19.841301 
Q 43.056345 19.841301 43.461506 19.651712 
Q 43.868195 19.462124 44.045548 19.054588 
z
" style="fill:#59a9d8;"/>
   </g>
   <g id="patch_9">
    <path clip-path="url(#p1ee6aa16d9)" d="M 49.00053 23.277379 
L 49.00053 23.176335 
L 51.84 23.176335 
L 51.84 23.415202 
Q 51.425614 23.451981 50.639562 23.47999 
Q 49.854934 23.508 49.048946 23.508 
Q 48.026509 23.508 47.264665 23.468603 
Q 46.504245 23.429076 46.121187 23.355649 
Q 45.738129 23.282222 45.738129 23.195968 
Q 45.738129 23.102253 46.165332 23.029481 
Q 46.592534 22.956708 47.41561 22.917835 
Q 48.043597 22.887993 48.977746 22.887993 
Q 50.192424 22.887993 50.875947 22.93485 
Q 51.559471 22.981576 51.75456 23.064165 
L 50.447321 23.086678 
Q 50.309192 23.042569 49.927558 23.017046 
Q 49.547349 22.991393 48.977746 22.991393 
Q 48.114797 22.991393 47.605003 23.041784 
Q 47.095208 23.092044 47.095208 23.190994 
Q 47.095208 23.297797 47.610699 23.351198 
Q 48.127613 23.404469 48.96493 23.404469 
Q 49.379316 23.404469 49.795126 23.389548 
Q 50.210936 23.374627 50.508553 23.353424 
L 50.508553 23.277379 
L 49.00053 23.277379 
z
" style="fill:#dc9514;"/>
   </g>
   <g id="patch_10">
    <path clip-path="url(#p1ee6aa16d9)" d="M 50.46857 22.385598 
L 51.84 22.466575 
Q 51.525045 22.68042 50.791169 22.784206 
Q 50.057294 22.887993 48.930489 22.887993 
Q 47.534596 22.887993 46.635598 22.710358 
Q 45.738129 22.532439 45.738129 22.224216 
Q 45.738129 21.898031 46.640185 21.71783 
Q 47.543769 21.537345 49.016108 21.537345 
Q 50.301919 21.537345 51.104595 21.678768 
Q 51.581615 21.762595 51.820124 21.919415 
L 50.421174 21.981858 
Q 50.295803 21.880353 49.901345 21.821617 
Q 49.508416 21.762595 48.944249 21.762595 
Q 48.166035 21.762595 47.679842 21.866952 
Q 47.195179 21.971023 47.195179 22.204543 
Q 47.195179 22.452318 47.672198 22.55753 
Q 48.150746 22.662457 48.9152 22.662457 
Q 49.479367 22.662457 49.884527 22.595737 
Q 50.291217 22.529017 50.46857 22.385598 
z
" style="fill:#59a9d8;"/>
   </g>
   <g id="patch_11">
    <path clip-path="url(#p1ee6aa16d9)" d="M 48.016273 21.537345 
L 48.016273 20.380032 
L 45.738129 20.380032 
L 45.738129 20.144373 
L 51.84 20.144373 
L 51.84 20.380032 
L 49.566886 20.380032 
L 49.566886 21.537345 
L 48.016273 21.537345 
z
" style="fill:#1a1a1a;"/>
   </g>
  </g>
 </g>
 <defs>
  <clipPath id="p1ee6aa16d9">
   <rect height="16.308" width="44.64" x="7.2" y="7.2"/>
  </clipPath>
 </defs>
</svg>
